<?xml version="1.0" encoding="utf-8" standalone="no"?>
<!DOCTYPE svg PUBLIC "-//W3C//DTD SVG 1.1//EN"
  "http://www.w3.org/Graphics/SVG/1.1/DTD/svg11.dtd">
<svg xmlns:xlink="http://www.w3.org/1999/xlink" width="723.765625pt" height="377.39625pt" viewBox="0 0 723.765625 377.39625" xmlns="http://www.w3.org/2000/svg" version="1.1">
 <metadata>
  <rdf:RDF xmlns:dc="http://purl.org/dc/elements/1.1/" xmlns:cc="http://creativecommons.org/ns#" xmlns:rdf="http://www.w3.org/1999/02/22-rdf-syntax-ns#">
   <cc:Work>
    <dc:type rdf:resource="http://purl.org/dc/dcmitype/StillImage"/>
    <dc:date>2026-05-22T18:29:59.941995</dc:date>
    <dc:format>image/svg+xml</dc:format>
    <dc:creator>
     <cc:Agent>
      <dc:title>Matplotlib v3.10.1, https://matplotlib.org/</dc:title>
     </cc:Agent>
    </dc:creator>
   </cc:Work>
  </rdf:RDF>
 </metadata>
 <defs>
  <style type="text/css">*{stroke-linejoin: round; stroke-linecap: butt}</style>
 </defs>
 <g id="figure_1">
  <g id="patch_1">
   <path d="M 0 377.39625 
L 723.765625 377.39625 
L 723.765625 0 
L 0 0 
z
" style="fill: #ffffff"/>
  </g>
  <g id="axes_1">
   <g id="patch_2">
    <path d="M 46.965625 339.84 
L 716.565625 339.84 
L 716.565625 7.2 
L 46.965625 7.2 
z
" style="fill: #ffffff"/>
   </g>
   <g id="FillBetweenPolyCollection_1">
    <defs>
     <path id="mc633dee6ce" d="M 77.401989 -266.985442 
L 77.401989 -182.291482 
L 79.465471 -195.117456 
L 81.528953 -121.816402 
L 83.592435 -156.980326 
L 85.655918 -140.000854 
L 87.7194 -128.779146 
L 89.782882 -160.038472 
L 91.846365 -208.921674 
L 93.909847 -234.861596 
L 95.973329 -199.903808 
L 98.036811 -231.441137 
L 100.100294 -192.065916 
L 102.163776 -191.339972 
L 104.227258 -196.298656 
L 106.290741 -173.102701 
L 108.354223 -171.336704 
L 110.417705 -184.331531 
L 112.481187 -191.283281 
L 114.54467 -163.762846 
L 116.608152 -126.057111 
L 118.671634 -135.421294 
L 120.735117 -175.674769 
L 122.798599 -168.575493 
L 124.862081 -183.194059 
L 126.925563 -184.45982 
L 128.989046 -183.823471 
L 131.052528 -184.487482 
L 133.11601 -172.969892 
L 135.179492 -146.087074 
L 137.242975 -104.974824 
L 139.306457 -119.744676 
L 141.369939 -137.349316 
L 143.433422 -97.667608 
L 145.496904 -91.665912 
L 147.560386 -148.610733 
L 149.623868 -132.122562 
L 151.687351 -157.694918 
L 153.750833 -120.818639 
L 155.814315 -159.532794 
L 157.877798 -152.692895 
L 159.94128 -161.499504 
L 162.004762 -148.515485 
L 164.068244 -101.909468 
L 166.131727 -74.889479 
L 168.195209 -98.998895 
L 170.258691 -109.351391 
L 172.322174 -135.509333 
L 174.385656 -141.724607 
L 176.449138 -106.254906 
L 178.51262 -106.196537 
L 180.576103 -131.021095 
L 182.639585 -128.479904 
L 184.703067 -140.736055 
L 186.766549 -119.087407 
L 188.830032 -138.498143 
L 190.893514 -177.355968 
L 192.956996 -182.981555 
L 195.020479 -189.065377 
L 197.083961 -191.756036 
L 199.147443 -187.226064 
L 201.210925 -176.461978 
L 203.274408 -135.52585 
L 205.33789 -138.199719 
L 207.401372 -141.710607 
L 209.464855 -151.131308 
L 211.528337 -186.202075 
L 213.591819 -198.709473 
L 215.655301 -187.133323 
L 217.718784 -199.525778 
L 219.782266 -202.365193 
L 221.845748 -188.885066 
L 223.909231 -200.269217 
L 225.972713 -203.743723 
L 228.036195 -177.661805 
L 230.099677 -175.022074 
L 232.16316 -184.410775 
L 234.226642 -158.840408 
L 236.290124 -161.261199 
L 238.353607 -175.166701 
L 240.417089 -172.301608 
L 242.480571 -139.569212 
L 244.544053 -135.901972 
L 246.607536 -146.910544 
L 248.671018 -147.496922 
L 250.7345 -162.063047 
L 252.797982 -127.491071 
L 254.861465 -136.47239 
L 256.924947 -130.364814 
L 258.988429 -104.889248 
L 261.051912 -107.361152 
L 263.115394 -109.120993 
L 265.178876 -105.460379 
L 267.242358 -131.171935 
L 269.305841 -144.845857 
L 271.369323 -141.220226 
L 273.432805 -137.667527 
L 275.496288 -163.319955 
L 277.55977 -132.266692 
L 279.623252 -96.081541 
L 281.686734 -114.482462 
L 283.750217 -227.047031 
L 285.813699 -194.453061 
L 287.877181 -225.213941 
L 289.940664 -208.769329 
L 292.004146 -111.842747 
L 294.067628 -155.506341 
L 296.13111 -154.368931 
L 298.194593 -174.009463 
L 300.258075 -151.058963 
L 302.321557 -144.224236 
L 304.385039 -153.957414 
L 306.448522 -183.68564 
L 308.512004 -191.548923 
L 310.575486 -195.730372 
L 312.638969 -162.644907 
L 314.702451 -150.637407 
L 316.765933 -172.245351 
L 318.829415 -164.701673 
L 320.892898 -202.577754 
L 322.95638 -129.884246 
L 325.019862 -124.564869 
L 327.083345 -175.728293 
L 329.146827 -149.369809 
L 331.210309 -136.609911 
L 333.273791 -153.071293 
L 335.337274 -161.897349 
L 337.400756 -138.464939 
L 339.464238 -145.237009 
L 341.527721 -144.557995 
L 343.591203 -148.265258 
L 345.654685 -116.433066 
L 347.718167 -152.246473 
L 349.78165 -141.888601 
L 351.845132 -134.050388 
L 353.908614 -132.84476 
L 355.972096 -128.961709 
L 358.035579 -126.587349 
L 360.099061 -101.502084 
L 362.162543 -111.22356 
L 364.226026 -151.022528 
L 366.289508 -143.084159 
L 368.35299 -168.239513 
L 370.416472 -171.451781 
L 372.479955 -189.419426 
L 374.543437 -209.407941 
L 376.606919 -177.053513 
L 378.670402 -181.829531 
L 380.733884 -168.526663 
L 382.797366 -177.867534 
L 384.860848 -183.296313 
L 386.924331 -215.357164 
L 388.987813 -220.46138 
L 391.051295 -194.735309 
L 393.114778 -174.368617 
L 395.17826 -196.293481 
L 397.241742 -220.534373 
L 399.305224 -187.759314 
L 401.368707 -205.437654 
L 403.432189 -182.537838 
L 405.495671 -149.149507 
L 407.559154 -141.421931 
L 409.622636 -173.015768 
L 411.686118 -170.583081 
L 413.7496 -157.207808 
L 415.813083 -154.203211 
L 417.876565 -163.618388 
L 419.940047 -180.640796 
L 422.003529 -163.073145 
L 424.067012 -161.513614 
L 426.130494 -130.97395 
L 428.193976 -162.31117 
L 430.257459 -159.496369 
L 432.320941 -155.422521 
L 434.384423 -116.697744 
L 436.447905 -119.940192 
L 438.511388 -129.807634 
L 440.57487 -203.325327 
L 442.638352 -214.352711 
L 444.701835 -194.895517 
L 446.765317 -155.288215 
L 448.828799 -150.732558 
L 450.892281 -241.86901 
L 452.955764 -239.870178 
L 455.019246 -211.91882 
L 457.082728 -241.487712 
L 459.146211 -253.764245 
L 461.209693 -248.219016 
L 463.273175 -237.73277 
L 465.336657 -249.572613 
L 467.40014 -261.047145 
L 469.463622 -259.408087 
L 471.527104 -232.451299 
L 473.590586 -201.587081 
L 475.654069 -209.00084 
L 477.717551 -164.430169 
L 479.781033 -177.777625 
L 481.844516 -166.67766 
L 483.907998 -200.374951 
L 485.97148 -180.495451 
L 488.034962 -200.243858 
L 490.098445 -213.235186 
L 492.161927 -227.92941 
L 494.225409 -211.627904 
L 496.288892 -152.195964 
L 498.352374 -180.332971 
L 500.415856 -166.208899 
L 502.479338 -160.255256 
L 504.542821 -212.464613 
L 506.606303 -126.356022 
L 508.669785 -176.574377 
L 510.733268 -127.148784 
L 512.79675 -197.338421 
L 514.860232 -195.518237 
L 516.923714 -221.620534 
L 518.987197 -154.453588 
L 521.050679 -199.615698 
L 523.114161 -207.051689 
L 525.177643 -181.832775 
L 527.241126 -190.811907 
L 529.304608 -118.434239 
L 531.36809 -179.516532 
L 533.431573 -75.737386 
L 535.495055 -194.143904 
L 537.558537 -166.570799 
L 539.622019 -132.725295 
L 541.685502 -86.646387 
L 543.748984 -98.704512 
L 545.812466 -157.421252 
L 547.875949 -140.479115 
L 549.939431 -186.834259 
L 552.002913 -204.353542 
L 554.066395 -214.399088 
L 556.129878 -207.029071 
L 558.19336 -136.276007 
L 560.256842 -162.608607 
L 562.320325 -162.801149 
L 564.383807 -160.426134 
L 566.447289 -121.703691 
L 568.510771 -189.715884 
L 570.574254 -135.666174 
L 572.637736 -147.215809 
L 574.701218 -183.22278 
L 576.764701 -201.731016 
L 578.828183 -113.308304 
L 580.891665 -172.49571 
L 582.955147 -164.936713 
L 585.01863 -187.967187 
L 587.082112 -134.698303 
L 589.145594 -168.88497 
L 591.209076 -192.315847 
L 593.272559 -187.741775 
L 595.336041 -193.856691 
L 597.399523 -196.41261 
L 599.463006 -171.318111 
L 601.526488 -182.612744 
L 603.58997 -152.522059 
L 605.653452 -116.884793 
L 607.716935 -155.069376 
L 609.780417 -165.276168 
L 611.843899 -161.888892 
L 613.907382 -153.984643 
L 615.970864 -179.268191 
L 618.034346 -178.078165 
L 620.097828 -156.530184 
L 622.161311 -155.975393 
L 624.224793 -161.712364 
L 626.288275 -165.635563 
L 628.351758 -152.312537 
L 630.41524 -150.651911 
L 632.478722 -176.742458 
L 634.542204 -164.277377 
L 636.605687 -165.320032 
L 638.669169 -166.346382 
L 640.732651 -173.416227 
L 642.796133 -172.680697 
L 644.859616 -181.451832 
L 646.923098 -169.354587 
L 648.98658 -161.721054 
L 651.050063 -145.74541 
L 653.113545 -121.22999 
L 655.177027 -109.691768 
L 657.240509 -103.199075 
L 659.303992 -143.50549 
L 661.367474 -136.731487 
L 663.430956 -143.861043 
L 665.494439 -140.953516 
L 667.557921 -80.758965 
L 669.621403 -52.67625 
L 671.684885 -179.468663 
L 673.748368 -153.738353 
L 675.81185 -173.027864 
L 677.875332 -169.120273 
L 679.938815 -160.180832 
L 682.002297 -144.784789 
L 684.065779 -129.209397 
L 686.129261 -108.983656 
L 686.129261 -231.380255 
L 686.129261 -231.380255 
L 684.065779 -254.10012 
L 682.002297 -272.12969 
L 679.938815 -289.939587 
L 677.875332 -301.244674 
L 675.81185 -307.485299 
L 673.748368 -290.487951 
L 671.684885 -294.534385 
L 669.621403 -170.321779 
L 667.557921 -200.943842 
L 665.494439 -263.636993 
L 663.430956 -269.000022 
L 661.367474 -264.286848 
L 659.303992 -273.435763 
L 657.240509 -234.305321 
L 655.177027 -243.017561 
L 653.113545 -219.378713 
L 651.050063 -246.480606 
L 648.98658 -264.986895 
L 646.923098 -275.123508 
L 644.859616 -276.080997 
L 642.796133 -270.112828 
L 640.732651 -273.609841 
L 638.669169 -269.147305 
L 636.605687 -270.681502 
L 634.542204 -272.218517 
L 632.478722 -287.273692 
L 630.41524 -243.240851 
L 628.351758 -247.801803 
L 626.288275 -263.983106 
L 624.224793 -262.875675 
L 622.161311 -234.939337 
L 620.097828 -210.93996 
L 618.034346 -234.572337 
L 615.970864 -239.187307 
L 613.907382 -216.045016 
L 611.843899 -227.30283 
L 609.780417 -233.272742 
L 607.716935 -226.325588 
L 605.653452 -191.376182 
L 603.58997 -230.198027 
L 601.526488 -263.434886 
L 599.463006 -255.247124 
L 597.399523 -283.405958 
L 595.336041 -283.870821 
L 593.272559 -280.732809 
L 591.209076 -288.173554 
L 589.145594 -267.631031 
L 587.082112 -236.287709 
L 585.01863 -292.355091 
L 582.955147 -272.076062 
L 580.891665 -282.342673 
L 578.828183 -225.816928 
L 576.764701 -316.855041 
L 574.701218 -300.902726 
L 572.637736 -267.417652 
L 570.574254 -258.342493 
L 568.510771 -314.819374 
L 566.447289 -249.186282 
L 564.383807 -290.184725 
L 562.320325 -294.842278 
L 560.256842 -296.883395 
L 558.19336 -272.733485 
L 556.129878 -345.621397 
L 554.066395 -355.07625 
L 552.002913 -347.064571 
L 549.939431 -331.52469 
L 547.875949 -286.93978 
L 545.812466 -305.763483 
L 543.748984 -248.876549 
L 541.685502 -238.596089 
L 539.622019 -248.778756 
L 537.558537 -247.134469 
L 535.495055 -271.050041 
L 533.431573 -155.583007 
L 531.36809 -262.246165 
L 529.304608 -203.389369 
L 527.241126 -278.558544 
L 525.177643 -272.3199 
L 523.114161 -300.229375 
L 521.050679 -295.433349 
L 518.987197 -252.859997 
L 516.923714 -322.562639 
L 514.860232 -298.945344 
L 512.79675 -303.195041 
L 510.733268 -210.928665 
L 508.669785 -260.742719 
L 506.606303 -194.670117 
L 504.542821 -247.67061 
L 502.479338 -197.157251 
L 500.415856 -206.495334 
L 498.352374 -223.847916 
L 496.288892 -199.119536 
L 494.225409 -261.881102 
L 492.161927 -280.82716 
L 490.098445 -269.445515 
L 488.034962 -259.708809 
L 485.97148 -229.996881 
L 483.907998 -253.469957 
L 481.844516 -223.367864 
L 479.781033 -237.959428 
L 477.717551 -227.096006 
L 475.654069 -275.002139 
L 473.590586 -270.984152 
L 471.527104 -305.146414 
L 469.463622 -297.761145 
L 467.40014 -301.184529 
L 465.336657 -293.388317 
L 463.273175 -283.881201 
L 461.209693 -297.331712 
L 459.146211 -306.152318 
L 457.082728 -297.362053 
L 455.019246 -271.190816 
L 452.955764 -302.511762 
L 450.892281 -301.558417 
L 448.828799 -212.953866 
L 446.765317 -220.47915 
L 444.701835 -263.775751 
L 442.638352 -286.882561 
L 440.57487 -279.452321 
L 438.511388 -208.252646 
L 436.447905 -201.871027 
L 434.384423 -201.998094 
L 432.320941 -244.075058 
L 430.257459 -251.461065 
L 428.193976 -257.441142 
L 426.130494 -229.299296 
L 424.067012 -228.287624 
L 422.003529 -232.810608 
L 419.940047 -253.967427 
L 417.876565 -240.4762 
L 415.813083 -234.532274 
L 413.7496 -240.947875 
L 411.686118 -256.722674 
L 409.622636 -262.445921 
L 407.559154 -234.080836 
L 405.495671 -244.833617 
L 403.432189 -255.058732 
L 401.368707 -281.600593 
L 399.305224 -267.503405 
L 397.241742 -303.601043 
L 395.17826 -282.813643 
L 393.114778 -264.281895 
L 391.051295 -287.942205 
L 388.987813 -316.933777 
L 386.924331 -315.030543 
L 384.860848 -286.09139 
L 382.797366 -283.73059 
L 380.733884 -277.377589 
L 378.670402 -293.613289 
L 376.606919 -291.70199 
L 374.543437 -326.847527 
L 372.479955 -309.583845 
L 370.416472 -294.269907 
L 368.35299 -293.639416 
L 366.289508 -270.992922 
L 364.226026 -281.366367 
L 362.162543 -243.928376 
L 360.099061 -236.492535 
L 358.035579 -263.787263 
L 355.972096 -268.293979 
L 353.908614 -274.231359 
L 351.845132 -277.411012 
L 349.78165 -287.144661 
L 347.718167 -299.317065 
L 345.654685 -233.470604 
L 343.591203 -266.311597 
L 341.527721 -264.863965 
L 339.464238 -267.727747 
L 337.400756 -263.040053 
L 335.337274 -273.935294 
L 333.273791 -267.764491 
L 331.210309 -250.97169 
L 329.146827 -249.50615 
L 327.083345 -241.560337 
L 325.019862 -194.226703 
L 322.95638 -201.531263 
L 320.892898 -277.913184 
L 318.829415 -243.648888 
L 316.765933 -254.714608 
L 314.702451 -236.547201 
L 312.638969 -251.930394 
L 310.575486 -288.309715 
L 308.512004 -287.340749 
L 306.448522 -282.6073 
L 304.385039 -255.915673 
L 302.321557 -241.354857 
L 300.258075 -214.231239 
L 298.194593 -241.525191 
L 296.13111 -226.223845 
L 294.067628 -231.62122 
L 292.004146 -191.702341 
L 289.940664 -292.727123 
L 287.877181 -313.189947 
L 285.813699 -286.363459 
L 283.750217 -322.777286 
L 281.686734 -213.976811 
L 279.623252 -199.252695 
L 277.55977 -236.363257 
L 275.496288 -270.910206 
L 273.432805 -248.66068 
L 271.369323 -255.511253 
L 269.305841 -262.355178 
L 267.242358 -251.803322 
L 265.178876 -229.115891 
L 263.115394 -235.701004 
L 261.051912 -236.764304 
L 258.988429 -199.376282 
L 256.924947 -228.424475 
L 254.861465 -238.006356 
L 252.797982 -232.39927 
L 250.7345 -270.243364 
L 248.671018 -258.84575 
L 246.607536 -223.796796 
L 244.544053 -216.660043 
L 242.480571 -221.481488 
L 240.417089 -220.77803 
L 238.353607 -190.75169 
L 236.290124 -180.82488 
L 234.226642 -183.866883 
L 232.16316 -214.455545 
L 230.099677 -210.067227 
L 228.036195 -217.176051 
L 225.972713 -248.437091 
L 223.909231 -246.51696 
L 221.845748 -238.5449 
L 219.782266 -256.902124 
L 217.718784 -258.850375 
L 215.655301 -251.152658 
L 213.591819 -267.319534 
L 211.528337 -259.271947 
L 209.464855 -228.569586 
L 207.401372 -223.401198 
L 205.33789 -223.981699 
L 203.274408 -225.297926 
L 201.210925 -270.125054 
L 199.147443 -284.653314 
L 197.083961 -292.813611 
L 195.020479 -293.623599 
L 192.956996 -290.903457 
L 190.893514 -288.500528 
L 188.830032 -250.075567 
L 186.766549 -233.594765 
L 184.703067 -258.020618 
L 182.639585 -248.384301 
L 180.576103 -253.383626 
L 178.51262 -230.835849 
L 176.449138 -232.651297 
L 174.385656 -270.063462 
L 172.322174 -265.607543 
L 170.258691 -241.020296 
L 168.195209 -232.043305 
L 166.131727 -209.107488 
L 164.068244 -237.092188 
L 162.004762 -254.532132 
L 159.94128 -269.744757 
L 157.877798 -262.832983 
L 155.814315 -271.491659 
L 153.750833 -234.370576 
L 151.687351 -272.622711 
L 149.623868 -246.870777 
L 147.560386 -264.254459 
L 145.496904 -207.94941 
L 143.433422 -214.323739 
L 141.369939 -224.994083 
L 139.306457 -209.276996 
L 137.242975 -195.692687 
L 135.179492 -238.164693 
L 133.11601 -228.493296 
L 131.052528 -243.085769 
L 128.989046 -245.219655 
L 126.925563 -245.187603 
L 124.862081 -246.030696 
L 122.798599 -233.380024 
L 120.735117 -241.846148 
L 118.671634 -202.873663 
L 116.608152 -194.453696 
L 114.54467 -196.113663 
L 112.481187 -226.792281 
L 110.417705 -222.662726 
L 108.354223 -212.123998 
L 106.290741 -215.954966 
L 104.227258 -240.785966 
L 102.163776 -236.872654 
L 100.100294 -238.24337 
L 98.036811 -267.970879 
L 95.973329 -240.144108 
L 93.909847 -272.573978 
L 91.846365 -254.31188 
L 89.782882 -212.857033 
L 87.7194 -188.183019 
L 85.655918 -205.950031 
L 83.592435 -228.013776 
L 81.528953 -197.69263 
L 79.465471 -276.04724 
L 77.401989 -266.985442 
z
" style="stroke: #4fa8c8; stroke-opacity: 0.2"/>
    </defs>
    <g clip-path="url(#pb996b11b48)">
     <use xlink:href="#mc633dee6ce" x="0" y="377.39625" style="fill: #4fa8c8; fill-opacity: 0.2; stroke: #4fa8c8; stroke-opacity: 0.2"/>
    </g>
   </g>
   <g id="matplotlib.axis_1">
    <g id="xtick_1">
     <g id="line2d_1">
      <path d="M 77.401989 339.84 
L 77.401989 7.2 
" clip-path="url(#pb996b11b48)" style="fill: none; stroke: #b0b0b0; stroke-opacity: 0.3; stroke-width: 0.8; stroke-linecap: square"/>
     </g>
     <g id="line2d_2">
      <defs>
       <path id="m1652fc953b" d="M 0 0 
L 0 3.5 
" style="stroke: #000000; stroke-width: 0.8"/>
      </defs>
      <g>
       <use xlink:href="#m1652fc953b" x="77.401989" y="339.84" style="stroke: #000000; stroke-width: 0.8"/>
      </g>
     </g>
     <g id="text_1">
      <!-- 0 -->
      <g transform="translate(74.220739 354.438438) scale(0.1 -0.1)">
       <defs>
        <path id="DejaVuSans-30" d="M 2034 4250 
Q 1547 4250 1301 3770 
Q 1056 3291 1056 2328 
Q 1056 1369 1301 889 
Q 1547 409 2034 409 
Q 2525 409 2770 889 
Q 3016 1369 3016 2328 
Q 3016 3291 2770 3770 
Q 2525 4250 2034 4250 
z
M 2034 4750 
Q 2819 4750 3233 4129 
Q 3647 3509 3647 2328 
Q 3647 1150 3233 529 
Q 2819 -91 2034 -91 
Q 1250 -91 836 529 
Q 422 1150 422 2328 
Q 422 3509 836 4129 
Q 1250 4750 2034 4750 
z
" transform="scale(0.015625)"/>
       </defs>
       <use xlink:href="#DejaVuSans-30"/>
      </g>
     </g>
    </g>
    <g id="xtick_2">
     <g id="line2d_3">
      <path d="M 180.576103 339.84 
L 180.576103 7.2 
" clip-path="url(#pb996b11b48)" style="fill: none; stroke: #b0b0b0; stroke-opacity: 0.3; stroke-width: 0.8; stroke-linecap: square"/>
     </g>
     <g id="line2d_4">
      <g>
       <use xlink:href="#m1652fc953b" x="180.576103" y="339.84" style="stroke: #000000; stroke-width: 0.8"/>
      </g>
     </g>
     <g id="text_2">
      <!-- 50 -->
      <g transform="translate(174.213603 354.438438) scale(0.1 -0.1)">
       <defs>
        <path id="DejaVuSans-35" d="M 691 4666 
L 3169 4666 
L 3169 4134 
L 1269 4134 
L 1269 2991 
Q 1406 3038 1543 3061 
Q 1681 3084 1819 3084 
Q 2600 3084 3056 2656 
Q 3513 2228 3513 1497 
Q 3513 744 3044 326 
Q 2575 -91 1722 -91 
Q 1428 -91 1123 -41 
Q 819 9 494 109 
L 494 744 
Q 775 591 1075 516 
Q 1375 441 1709 441 
Q 2250 441 2565 725 
Q 2881 1009 2881 1497 
Q 2881 1984 2565 2268 
Q 2250 2553 1709 2553 
Q 1456 2553 1204 2497 
Q 953 2441 691 2322 
L 691 4666 
z
" transform="scale(0.015625)"/>
       </defs>
       <use xlink:href="#DejaVuSans-35"/>
       <use xlink:href="#DejaVuSans-30" transform="translate(63.623047 0)"/>
      </g>
     </g>
    </g>
    <g id="xtick_3">
     <g id="line2d_5">
      <path d="M 283.750217 339.84 
L 283.750217 7.2 
" clip-path="url(#pb996b11b48)" style="fill: none; stroke: #b0b0b0; stroke-opacity: 0.3; stroke-width: 0.8; stroke-linecap: square"/>
     </g>
     <g id="line2d_6">
      <g>
       <use xlink:href="#m1652fc953b" x="283.750217" y="339.84" style="stroke: #000000; stroke-width: 0.8"/>
      </g>
     </g>
     <g id="text_3">
      <!-- 100 -->
      <g transform="translate(274.206467 354.438438) scale(0.1 -0.1)">
       <defs>
        <path id="DejaVuSans-31" d="M 794 531 
L 1825 531 
L 1825 4091 
L 703 3866 
L 703 4441 
L 1819 4666 
L 2450 4666 
L 2450 531 
L 3481 531 
L 3481 0 
L 794 0 
L 794 531 
z
" transform="scale(0.015625)"/>
       </defs>
       <use xlink:href="#DejaVuSans-31"/>
       <use xlink:href="#DejaVuSans-30" transform="translate(63.623047 0)"/>
       <use xlink:href="#DejaVuSans-30" transform="translate(127.246094 0)"/>
      </g>
     </g>
    </g>
    <g id="xtick_4">
     <g id="line2d_7">
      <path d="M 386.924331 339.84 
L 386.924331 7.2 
" clip-path="url(#pb996b11b48)" style="fill: none; stroke: #b0b0b0; stroke-opacity: 0.3; stroke-width: 0.8; stroke-linecap: square"/>
     </g>
     <g id="line2d_8">
      <g>
       <use xlink:href="#m1652fc953b" x="386.924331" y="339.84" style="stroke: #000000; stroke-width: 0.8"/>
      </g>
     </g>
     <g id="text_4">
      <!-- 150 -->
      <g transform="translate(377.380581 354.438438) scale(0.1 -0.1)">
       <use xlink:href="#DejaVuSans-31"/>
       <use xlink:href="#DejaVuSans-35" transform="translate(63.623047 0)"/>
       <use xlink:href="#DejaVuSans-30" transform="translate(127.246094 0)"/>
      </g>
     </g>
    </g>
    <g id="xtick_5">
     <g id="line2d_9">
      <path d="M 490.098445 339.84 
L 490.098445 7.2 
" clip-path="url(#pb996b11b48)" style="fill: none; stroke: #b0b0b0; stroke-opacity: 0.3; stroke-width: 0.8; stroke-linecap: square"/>
     </g>
     <g id="line2d_10">
      <g>
       <use xlink:href="#m1652fc953b" x="490.098445" y="339.84" style="stroke: #000000; stroke-width: 0.8"/>
      </g>
     </g>
     <g id="text_5">
      <!-- 200 -->
      <g transform="translate(480.554695 354.438438) scale(0.1 -0.1)">
       <defs>
        <path id="DejaVuSans-32" d="M 1228 531 
L 3431 531 
L 3431 0 
L 469 0 
L 469 531 
Q 828 903 1448 1529 
Q 2069 2156 2228 2338 
Q 2531 2678 2651 2914 
Q 2772 3150 2772 3378 
Q 2772 3750 2511 3984 
Q 2250 4219 1831 4219 
Q 1534 4219 1204 4116 
Q 875 4013 500 3803 
L 500 4441 
Q 881 4594 1212 4672 
Q 1544 4750 1819 4750 
Q 2544 4750 2975 4387 
Q 3406 4025 3406 3419 
Q 3406 3131 3298 2873 
Q 3191 2616 2906 2266 
Q 2828 2175 2409 1742 
Q 1991 1309 1228 531 
z
" transform="scale(0.015625)"/>
       </defs>
       <use xlink:href="#DejaVuSans-32"/>
       <use xlink:href="#DejaVuSans-30" transform="translate(63.623047 0)"/>
       <use xlink:href="#DejaVuSans-30" transform="translate(127.246094 0)"/>
      </g>
     </g>
    </g>
    <g id="xtick_6">
     <g id="line2d_11">
      <path d="M 593.272559 339.84 
L 593.272559 7.2 
" clip-path="url(#pb996b11b48)" style="fill: none; stroke: #b0b0b0; stroke-opacity: 0.3; stroke-width: 0.8; stroke-linecap: square"/>
     </g>
     <g id="line2d_12">
      <g>
       <use xlink:href="#m1652fc953b" x="593.272559" y="339.84" style="stroke: #000000; stroke-width: 0.8"/>
      </g>
     </g>
     <g id="text_6">
      <!-- 250 -->
      <g transform="translate(583.728809 354.438438) scale(0.1 -0.1)">
       <use xlink:href="#DejaVuSans-32"/>
       <use xlink:href="#DejaVuSans-35" transform="translate(63.623047 0)"/>
       <use xlink:href="#DejaVuSans-30" transform="translate(127.246094 0)"/>
      </g>
     </g>
    </g>
    <g id="xtick_7">
     <g id="line2d_13">
      <path d="M 696.446673 339.84 
L 696.446673 7.2 
" clip-path="url(#pb996b11b48)" style="fill: none; stroke: #b0b0b0; stroke-opacity: 0.3; stroke-width: 0.8; stroke-linecap: square"/>
     </g>
     <g id="line2d_14">
      <g>
       <use xlink:href="#m1652fc953b" x="696.446673" y="339.84" style="stroke: #000000; stroke-width: 0.8"/>
      </g>
     </g>
     <g id="text_7">
      <!-- 300 -->
      <g transform="translate(686.902923 354.438438) scale(0.1 -0.1)">
       <defs>
        <path id="DejaVuSans-33" d="M 2597 2516 
Q 3050 2419 3304 2112 
Q 3559 1806 3559 1356 
Q 3559 666 3084 287 
Q 2609 -91 1734 -91 
Q 1441 -91 1130 -33 
Q 819 25 488 141 
L 488 750 
Q 750 597 1062 519 
Q 1375 441 1716 441 
Q 2309 441 2620 675 
Q 2931 909 2931 1356 
Q 2931 1769 2642 2001 
Q 2353 2234 1838 2234 
L 1294 2234 
L 1294 2753 
L 1863 2753 
Q 2328 2753 2575 2939 
Q 2822 3125 2822 3475 
Q 2822 3834 2567 4026 
Q 2313 4219 1838 4219 
Q 1578 4219 1281 4162 
Q 984 4106 628 3988 
L 628 4550 
Q 988 4650 1302 4700 
Q 1616 4750 1894 4750 
Q 2613 4750 3031 4423 
Q 3450 4097 3450 3541 
Q 3450 3153 3228 2886 
Q 3006 2619 2597 2516 
z
" transform="scale(0.015625)"/>
       </defs>
       <use xlink:href="#DejaVuSans-33"/>
       <use xlink:href="#DejaVuSans-30" transform="translate(63.623047 0)"/>
       <use xlink:href="#DejaVuSans-30" transform="translate(127.246094 0)"/>
      </g>
     </g>
    </g>
    <g id="text_8">
     <!-- Time (sessions) -->
     <g transform="translate(342.928906 368.116562) scale(0.1 -0.1)">
      <defs>
       <path id="DejaVuSans-54" d="M -19 4666 
L 3928 4666 
L 3928 4134 
L 2272 4134 
L 2272 0 
L 1638 0 
L 1638 4134 
L -19 4134 
L -19 4666 
z
" transform="scale(0.015625)"/>
       <path id="DejaVuSans-69" d="M 603 3500 
L 1178 3500 
L 1178 0 
L 603 0 
L 603 3500 
z
M 603 4863 
L 1178 4863 
L 1178 4134 
L 603 4134 
L 603 4863 
z
" transform="scale(0.015625)"/>
       <path id="DejaVuSans-6d" d="M 3328 2828 
Q 3544 3216 3844 3400 
Q 4144 3584 4550 3584 
Q 5097 3584 5394 3201 
Q 5691 2819 5691 2113 
L 5691 0 
L 5113 0 
L 5113 2094 
Q 5113 2597 4934 2840 
Q 4756 3084 4391 3084 
Q 3944 3084 3684 2787 
Q 3425 2491 3425 1978 
L 3425 0 
L 2847 0 
L 2847 2094 
Q 2847 2600 2669 2842 
Q 2491 3084 2119 3084 
Q 1678 3084 1418 2786 
Q 1159 2488 1159 1978 
L 1159 0 
L 581 0 
L 581 3500 
L 1159 3500 
L 1159 2956 
Q 1356 3278 1631 3431 
Q 1906 3584 2284 3584 
Q 2666 3584 2933 3390 
Q 3200 3197 3328 2828 
z
" transform="scale(0.015625)"/>
       <path id="DejaVuSans-65" d="M 3597 1894 
L 3597 1613 
L 953 1613 
Q 991 1019 1311 708 
Q 1631 397 2203 397 
Q 2534 397 2845 478 
Q 3156 559 3463 722 
L 3463 178 
Q 3153 47 2828 -22 
Q 2503 -91 2169 -91 
Q 1331 -91 842 396 
Q 353 884 353 1716 
Q 353 2575 817 3079 
Q 1281 3584 2069 3584 
Q 2775 3584 3186 3129 
Q 3597 2675 3597 1894 
z
M 3022 2063 
Q 3016 2534 2758 2815 
Q 2500 3097 2075 3097 
Q 1594 3097 1305 2825 
Q 1016 2553 972 2059 
L 3022 2063 
z
" transform="scale(0.015625)"/>
       <path id="DejaVuSans-20" transform="scale(0.015625)"/>
       <path id="DejaVuSans-28" d="M 1984 4856 
Q 1566 4138 1362 3434 
Q 1159 2731 1159 2009 
Q 1159 1288 1364 580 
Q 1569 -128 1984 -844 
L 1484 -844 
Q 1016 -109 783 600 
Q 550 1309 550 2009 
Q 550 2706 781 3412 
Q 1013 4119 1484 4856 
L 1984 4856 
z
" transform="scale(0.015625)"/>
       <path id="DejaVuSans-73" d="M 2834 3397 
L 2834 2853 
Q 2591 2978 2328 3040 
Q 2066 3103 1784 3103 
Q 1356 3103 1142 2972 
Q 928 2841 928 2578 
Q 928 2378 1081 2264 
Q 1234 2150 1697 2047 
L 1894 2003 
Q 2506 1872 2764 1633 
Q 3022 1394 3022 966 
Q 3022 478 2636 193 
Q 2250 -91 1575 -91 
Q 1294 -91 989 -36 
Q 684 19 347 128 
L 347 722 
Q 666 556 975 473 
Q 1284 391 1588 391 
Q 1994 391 2212 530 
Q 2431 669 2431 922 
Q 2431 1156 2273 1281 
Q 2116 1406 1581 1522 
L 1381 1569 
Q 847 1681 609 1914 
Q 372 2147 372 2553 
Q 372 3047 722 3315 
Q 1072 3584 1716 3584 
Q 2034 3584 2315 3537 
Q 2597 3491 2834 3397 
z
" transform="scale(0.015625)"/>
       <path id="DejaVuSans-6f" d="M 1959 3097 
Q 1497 3097 1228 2736 
Q 959 2375 959 1747 
Q 959 1119 1226 758 
Q 1494 397 1959 397 
Q 2419 397 2687 759 
Q 2956 1122 2956 1747 
Q 2956 2369 2687 2733 
Q 2419 3097 1959 3097 
z
M 1959 3584 
Q 2709 3584 3137 3096 
Q 3566 2609 3566 1747 
Q 3566 888 3137 398 
Q 2709 -91 1959 -91 
Q 1206 -91 779 398 
Q 353 888 353 1747 
Q 353 2609 779 3096 
Q 1206 3584 1959 3584 
z
" transform="scale(0.015625)"/>
       <path id="DejaVuSans-6e" d="M 3513 2113 
L 3513 0 
L 2938 0 
L 2938 2094 
Q 2938 2591 2744 2837 
Q 2550 3084 2163 3084 
Q 1697 3084 1428 2787 
Q 1159 2491 1159 1978 
L 1159 0 
L 581 0 
L 581 3500 
L 1159 3500 
L 1159 2956 
Q 1366 3272 1645 3428 
Q 1925 3584 2291 3584 
Q 2894 3584 3203 3211 
Q 3513 2838 3513 2113 
z
" transform="scale(0.015625)"/>
       <path id="DejaVuSans-29" d="M 513 4856 
L 1013 4856 
Q 1481 4119 1714 3412 
Q 1947 2706 1947 2009 
Q 1947 1309 1714 600 
Q 1481 -109 1013 -844 
L 513 -844 
Q 928 -128 1133 580 
Q 1338 1288 1338 2009 
Q 1338 2731 1133 3434 
Q 928 4138 513 4856 
z
" transform="scale(0.015625)"/>
      </defs>
      <use xlink:href="#DejaVuSans-54"/>
      <use xlink:href="#DejaVuSans-69" transform="translate(57.958984 0)"/>
      <use xlink:href="#DejaVuSans-6d" transform="translate(85.742188 0)"/>
      <use xlink:href="#DejaVuSans-65" transform="translate(183.154297 0)"/>
      <use xlink:href="#DejaVuSans-20" transform="translate(244.677734 0)"/>
      <use xlink:href="#DejaVuSans-28" transform="translate(276.464844 0)"/>
      <use xlink:href="#DejaVuSans-73" transform="translate(315.478516 0)"/>
      <use xlink:href="#DejaVuSans-65" transform="translate(367.578125 0)"/>
      <use xlink:href="#DejaVuSans-73" transform="translate(429.101562 0)"/>
      <use xlink:href="#DejaVuSans-73" transform="translate(481.201172 0)"/>
      <use xlink:href="#DejaVuSans-69" transform="translate(533.300781 0)"/>
      <use xlink:href="#DejaVuSans-6f" transform="translate(561.083984 0)"/>
      <use xlink:href="#DejaVuSans-6e" transform="translate(622.265625 0)"/>
      <use xlink:href="#DejaVuSans-73" transform="translate(685.644531 0)"/>
      <use xlink:href="#DejaVuSans-29" transform="translate(737.744141 0)"/>
     </g>
    </g>
   </g>
   <g id="matplotlib.axis_2">
    <g id="ytick_1">
     <g id="line2d_15">
      <path d="M 46.965625 325.921263 
L 716.565625 325.921263 
" clip-path="url(#pb996b11b48)" style="fill: none; stroke: #b0b0b0; stroke-opacity: 0.3; stroke-width: 0.8; stroke-linecap: square"/>
     </g>
     <g id="line2d_16">
      <defs>
       <path id="m9c39d1ac8a" d="M 0 0 
L -3.5 0 
" style="stroke: #000000; stroke-width: 0.8"/>
      </defs>
      <g>
       <use xlink:href="#m9c39d1ac8a" x="46.965625" y="325.921263" style="stroke: #000000; stroke-width: 0.8"/>
      </g>
     </g>
     <g id="text_9">
      <!-- 120 -->
      <g transform="translate(20.878125 329.720482) scale(0.1 -0.1)">
       <use xlink:href="#DejaVuSans-31"/>
       <use xlink:href="#DejaVuSans-32" transform="translate(63.623047 0)"/>
       <use xlink:href="#DejaVuSans-30" transform="translate(127.246094 0)"/>
      </g>
     </g>
    </g>
    <g id="ytick_2">
     <g id="line2d_17">
      <path d="M 46.965625 278.869064 
L 716.565625 278.869064 
" clip-path="url(#pb996b11b48)" style="fill: none; stroke: #b0b0b0; stroke-opacity: 0.3; stroke-width: 0.8; stroke-linecap: square"/>
     </g>
     <g id="line2d_18">
      <g>
       <use xlink:href="#m9c39d1ac8a" x="46.965625" y="278.869064" style="stroke: #000000; stroke-width: 0.8"/>
      </g>
     </g>
     <g id="text_10">
      <!-- 130 -->
      <g transform="translate(20.878125 282.668283) scale(0.1 -0.1)">
       <use xlink:href="#DejaVuSans-31"/>
       <use xlink:href="#DejaVuSans-33" transform="translate(63.623047 0)"/>
       <use xlink:href="#DejaVuSans-30" transform="translate(127.246094 0)"/>
      </g>
     </g>
    </g>
    <g id="ytick_3">
     <g id="line2d_19">
      <path d="M 46.965625 231.816864 
L 716.565625 231.816864 
" clip-path="url(#pb996b11b48)" style="fill: none; stroke: #b0b0b0; stroke-opacity: 0.3; stroke-width: 0.8; stroke-linecap: square"/>
     </g>
     <g id="line2d_20">
      <g>
       <use xlink:href="#m9c39d1ac8a" x="46.965625" y="231.816864" style="stroke: #000000; stroke-width: 0.8"/>
      </g>
     </g>
     <g id="text_11">
      <!-- 140 -->
      <g transform="translate(20.878125 235.616083) scale(0.1 -0.1)">
       <defs>
        <path id="DejaVuSans-34" d="M 2419 4116 
L 825 1625 
L 2419 1625 
L 2419 4116 
z
M 2253 4666 
L 3047 4666 
L 3047 1625 
L 3713 1625 
L 3713 1100 
L 3047 1100 
L 3047 0 
L 2419 0 
L 2419 1100 
L 313 1100 
L 313 1709 
L 2253 4666 
z
" transform="scale(0.015625)"/>
       </defs>
       <use xlink:href="#DejaVuSans-31"/>
       <use xlink:href="#DejaVuSans-34" transform="translate(63.623047 0)"/>
       <use xlink:href="#DejaVuSans-30" transform="translate(127.246094 0)"/>
      </g>
     </g>
    </g>
    <g id="ytick_4">
     <g id="line2d_21">
      <path d="M 46.965625 184.764665 
L 716.565625 184.764665 
" clip-path="url(#pb996b11b48)" style="fill: none; stroke: #b0b0b0; stroke-opacity: 0.3; stroke-width: 0.8; stroke-linecap: square"/>
     </g>
     <g id="line2d_22">
      <g>
       <use xlink:href="#m9c39d1ac8a" x="46.965625" y="184.764665" style="stroke: #000000; stroke-width: 0.8"/>
      </g>
     </g>
     <g id="text_12">
      <!-- 150 -->
      <g transform="translate(20.878125 188.563884) scale(0.1 -0.1)">
       <use xlink:href="#DejaVuSans-31"/>
       <use xlink:href="#DejaVuSans-35" transform="translate(63.623047 0)"/>
       <use xlink:href="#DejaVuSans-30" transform="translate(127.246094 0)"/>
      </g>
     </g>
    </g>
    <g id="ytick_5">
     <g id="line2d_23">
      <path d="M 46.965625 137.712465 
L 716.565625 137.712465 
" clip-path="url(#pb996b11b48)" style="fill: none; stroke: #b0b0b0; stroke-opacity: 0.3; stroke-width: 0.8; stroke-linecap: square"/>
     </g>
     <g id="line2d_24">
      <g>
       <use xlink:href="#m9c39d1ac8a" x="46.965625" y="137.712465" style="stroke: #000000; stroke-width: 0.8"/>
      </g>
     </g>
     <g id="text_13">
      <!-- 160 -->
      <g transform="translate(20.878125 141.511684) scale(0.1 -0.1)">
       <defs>
        <path id="DejaVuSans-36" d="M 2113 2584 
Q 1688 2584 1439 2293 
Q 1191 2003 1191 1497 
Q 1191 994 1439 701 
Q 1688 409 2113 409 
Q 2538 409 2786 701 
Q 3034 994 3034 1497 
Q 3034 2003 2786 2293 
Q 2538 2584 2113 2584 
z
M 3366 4563 
L 3366 3988 
Q 3128 4100 2886 4159 
Q 2644 4219 2406 4219 
Q 1781 4219 1451 3797 
Q 1122 3375 1075 2522 
Q 1259 2794 1537 2939 
Q 1816 3084 2150 3084 
Q 2853 3084 3261 2657 
Q 3669 2231 3669 1497 
Q 3669 778 3244 343 
Q 2819 -91 2113 -91 
Q 1303 -91 875 529 
Q 447 1150 447 2328 
Q 447 3434 972 4092 
Q 1497 4750 2381 4750 
Q 2619 4750 2861 4703 
Q 3103 4656 3366 4563 
z
" transform="scale(0.015625)"/>
       </defs>
       <use xlink:href="#DejaVuSans-31"/>
       <use xlink:href="#DejaVuSans-36" transform="translate(63.623047 0)"/>
       <use xlink:href="#DejaVuSans-30" transform="translate(127.246094 0)"/>
      </g>
     </g>
    </g>
    <g id="ytick_6">
     <g id="line2d_25">
      <path d="M 46.965625 90.660266 
L 716.565625 90.660266 
" clip-path="url(#pb996b11b48)" style="fill: none; stroke: #b0b0b0; stroke-opacity: 0.3; stroke-width: 0.8; stroke-linecap: square"/>
     </g>
     <g id="line2d_26">
      <g>
       <use xlink:href="#m9c39d1ac8a" x="46.965625" y="90.660266" style="stroke: #000000; stroke-width: 0.8"/>
      </g>
     </g>
     <g id="text_14">
      <!-- 170 -->
      <g transform="translate(20.878125 94.459485) scale(0.1 -0.1)">
       <defs>
        <path id="DejaVuSans-37" d="M 525 4666 
L 3525 4666 
L 3525 4397 
L 1831 0 
L 1172 0 
L 2766 4134 
L 525 4134 
L 525 4666 
z
" transform="scale(0.015625)"/>
       </defs>
       <use xlink:href="#DejaVuSans-31"/>
       <use xlink:href="#DejaVuSans-37" transform="translate(63.623047 0)"/>
       <use xlink:href="#DejaVuSans-30" transform="translate(127.246094 0)"/>
      </g>
     </g>
    </g>
    <g id="ytick_7">
     <g id="line2d_27">
      <path d="M 46.965625 43.608066 
L 716.565625 43.608066 
" clip-path="url(#pb996b11b48)" style="fill: none; stroke: #b0b0b0; stroke-opacity: 0.3; stroke-width: 0.8; stroke-linecap: square"/>
     </g>
     <g id="line2d_28">
      <g>
       <use xlink:href="#m9c39d1ac8a" x="46.965625" y="43.608066" style="stroke: #000000; stroke-width: 0.8"/>
      </g>
     </g>
     <g id="text_15">
      <!-- 180 -->
      <g transform="translate(20.878125 47.407285) scale(0.1 -0.1)">
       <defs>
        <path id="DejaVuSans-38" d="M 2034 2216 
Q 1584 2216 1326 1975 
Q 1069 1734 1069 1313 
Q 1069 891 1326 650 
Q 1584 409 2034 409 
Q 2484 409 2743 651 
Q 3003 894 3003 1313 
Q 3003 1734 2745 1975 
Q 2488 2216 2034 2216 
z
M 1403 2484 
Q 997 2584 770 2862 
Q 544 3141 544 3541 
Q 544 4100 942 4425 
Q 1341 4750 2034 4750 
Q 2731 4750 3128 4425 
Q 3525 4100 3525 3541 
Q 3525 3141 3298 2862 
Q 3072 2584 2669 2484 
Q 3125 2378 3379 2068 
Q 3634 1759 3634 1313 
Q 3634 634 3220 271 
Q 2806 -91 2034 -91 
Q 1263 -91 848 271 
Q 434 634 434 1313 
Q 434 1759 690 2068 
Q 947 2378 1403 2484 
z
M 1172 3481 
Q 1172 3119 1398 2916 
Q 1625 2713 2034 2713 
Q 2441 2713 2670 2916 
Q 2900 3119 2900 3481 
Q 2900 3844 2670 4047 
Q 2441 4250 2034 4250 
Q 1625 4250 1398 4047 
Q 1172 3844 1172 3481 
z
" transform="scale(0.015625)"/>
       </defs>
       <use xlink:href="#DejaVuSans-31"/>
       <use xlink:href="#DejaVuSans-38" transform="translate(63.623047 0)"/>
       <use xlink:href="#DejaVuSans-30" transform="translate(127.246094 0)"/>
      </g>
     </g>
    </g>
    <g id="text_16">
     <!-- Heart Rate -->
     <g transform="translate(14.798438 200.487969) rotate(-90) scale(0.1 -0.1)">
      <defs>
       <path id="DejaVuSans-48" d="M 628 4666 
L 1259 4666 
L 1259 2753 
L 3553 2753 
L 3553 4666 
L 4184 4666 
L 4184 0 
L 3553 0 
L 3553 2222 
L 1259 2222 
L 1259 0 
L 628 0 
L 628 4666 
z
" transform="scale(0.015625)"/>
       <path id="DejaVuSans-61" d="M 2194 1759 
Q 1497 1759 1228 1600 
Q 959 1441 959 1056 
Q 959 750 1161 570 
Q 1363 391 1709 391 
Q 2188 391 2477 730 
Q 2766 1069 2766 1631 
L 2766 1759 
L 2194 1759 
z
M 3341 1997 
L 3341 0 
L 2766 0 
L 2766 531 
Q 2569 213 2275 61 
Q 1981 -91 1556 -91 
Q 1019 -91 701 211 
Q 384 513 384 1019 
Q 384 1609 779 1909 
Q 1175 2209 1959 2209 
L 2766 2209 
L 2766 2266 
Q 2766 2663 2505 2880 
Q 2244 3097 1772 3097 
Q 1472 3097 1187 3025 
Q 903 2953 641 2809 
L 641 3341 
Q 956 3463 1253 3523 
Q 1550 3584 1831 3584 
Q 2591 3584 2966 3190 
Q 3341 2797 3341 1997 
z
" transform="scale(0.015625)"/>
       <path id="DejaVuSans-72" d="M 2631 2963 
Q 2534 3019 2420 3045 
Q 2306 3072 2169 3072 
Q 1681 3072 1420 2755 
Q 1159 2438 1159 1844 
L 1159 0 
L 581 0 
L 581 3500 
L 1159 3500 
L 1159 2956 
Q 1341 3275 1631 3429 
Q 1922 3584 2338 3584 
Q 2397 3584 2469 3576 
Q 2541 3569 2628 3553 
L 2631 2963 
z
" transform="scale(0.015625)"/>
       <path id="DejaVuSans-74" d="M 1172 4494 
L 1172 3500 
L 2356 3500 
L 2356 3053 
L 1172 3053 
L 1172 1153 
Q 1172 725 1289 603 
Q 1406 481 1766 481 
L 2356 481 
L 2356 0 
L 1766 0 
Q 1100 0 847 248 
Q 594 497 594 1153 
L 594 3053 
L 172 3053 
L 172 3500 
L 594 3500 
L 594 4494 
L 1172 4494 
z
" transform="scale(0.015625)"/>
       <path id="DejaVuSans-52" d="M 2841 2188 
Q 3044 2119 3236 1894 
Q 3428 1669 3622 1275 
L 4263 0 
L 3584 0 
L 2988 1197 
Q 2756 1666 2539 1819 
Q 2322 1972 1947 1972 
L 1259 1972 
L 1259 0 
L 628 0 
L 628 4666 
L 2053 4666 
Q 2853 4666 3247 4331 
Q 3641 3997 3641 3322 
Q 3641 2881 3436 2590 
Q 3231 2300 2841 2188 
z
M 1259 4147 
L 1259 2491 
L 2053 2491 
Q 2509 2491 2742 2702 
Q 2975 2913 2975 3322 
Q 2975 3731 2742 3939 
Q 2509 4147 2053 4147 
L 1259 4147 
z
" transform="scale(0.015625)"/>
      </defs>
      <use xlink:href="#DejaVuSans-48"/>
      <use xlink:href="#DejaVuSans-65" transform="translate(75.195312 0)"/>
      <use xlink:href="#DejaVuSans-61" transform="translate(136.71875 0)"/>
      <use xlink:href="#DejaVuSans-72" transform="translate(197.998047 0)"/>
      <use xlink:href="#DejaVuSans-74" transform="translate(239.111328 0)"/>
      <use xlink:href="#DejaVuSans-20" transform="translate(278.320312 0)"/>
      <use xlink:href="#DejaVuSans-52" transform="translate(310.107422 0)"/>
      <use xlink:href="#DejaVuSans-61" transform="translate(377.339844 0)"/>
      <use xlink:href="#DejaVuSans-74" transform="translate(438.619141 0)"/>
      <use xlink:href="#DejaVuSans-65" transform="translate(477.828125 0)"/>
     </g>
    </g>
   </g>
   <g id="line2d_29">
    <path d="M 77.401989 134.748177 
L 79.465471 124.11438 
L 81.528953 250.026066 
L 83.592435 152.722117 
L 85.655918 230.828768 
L 87.7194 244.426854 
L 89.782882 185.705709 
L 91.846365 138.794666 
L 93.909847 103.740777 
L 95.973329 145.52313 
L 98.036811 107.316744 
L 100.100294 170.037326 
L 102.163776 146.652383 
L 104.227258 162.979496 
L 106.290741 180.38881 
L 108.354223 192.857643 
L 110.417705 170.507848 
L 112.481187 165.802628 
L 114.54467 224.900191 
L 116.608152 220.194971 
L 118.671634 184.247091 
L 120.735117 196.574767 
L 124.862081 137.712465 
L 126.925563 132.536723 
L 128.989046 184.01183 
L 131.052528 154.93357 
L 133.11601 223.770938 
L 135.179492 201.844613 
L 137.242975 268.376423 
L 139.306457 209.372965 
L 141.369939 145.758391 
L 143.433422 217.089526 
L 145.496904 201.656404 
L 147.560386 165.567367 
L 149.623868 133.148402 
L 151.687351 156.20398 
L 153.750833 158.227224 
L 155.814315 129.148965 
L 157.877798 123.173336 
L 159.94128 127.831503 
L 162.004762 113.998157 
L 164.068244 240.521521 
L 166.131727 273.787426 
L 168.195209 198.692116 
L 170.258691 174.789599 
L 172.322174 138.982875 
L 174.385656 169.237439 
L 176.449138 263.953517 
L 178.51262 254.731286 
L 180.576103 214.266394 
L 182.639585 219.395084 
L 184.703067 158.180172 
L 186.766549 222.923999 
L 188.830032 237.698389 
L 190.893514 171.40184 
L 192.956996 136.300899 
L 195.020479 125.761207 
L 197.083961 107.363797 
L 199.147443 140.206232 
L 201.210925 149.522567 
L 203.274408 224.429669 
L 205.33789 223.770938 
L 207.401372 181.894481 
L 209.464855 184.105934 
L 211.528337 173.048667 
L 213.591819 143.217573 
L 215.655301 150.510664 
L 217.718784 137.853622 
L 219.782266 137.665413 
L 221.845748 185.329291 
L 223.909231 176.906948 
L 225.972713 156.156928 
L 228.036195 194.363314 
L 230.099677 194.50447 
L 232.16316 185.752761 
L 234.226642 206.549833 
L 236.290124 199.397899 
L 238.353607 158.180172 
L 240.417089 135.924482 
L 242.480571 157.003867 
L 244.544053 172.107623 
L 246.607536 129.760644 
L 248.671018 169.425648 
L 250.7345 136.677317 
L 252.797982 211.81968 
L 254.861465 174.930755 
L 256.924947 185.235187 
L 258.988429 306.629862 
L 261.051912 217.936466 
L 263.115394 213.74882 
L 265.178876 224.382617 
L 267.242358 181.65922 
L 269.305841 197.045289 
L 271.369323 140.300336 
L 273.432805 152.110438 
L 275.496288 129.148965 
L 277.55977 142.276529 
L 279.623252 239.956895 
L 281.686734 199.115586 
L 283.750217 133.995342 
L 285.813699 121.150091 
L 287.877181 113.057113 
L 289.940664 110.186929 
L 292.004146 257.883783 
L 294.067628 193.516374 
L 296.13111 190.599138 
L 298.194593 149.898985 
L 300.258075 114.092261 
L 302.321557 133.148402 
L 304.385039 142.229476 
L 306.448522 143.829251 
L 308.512004 121.197143 
L 310.575486 117.809385 
L 312.638969 160.48573 
L 314.702451 160.815095 
L 316.765933 184.388247 
L 318.829415 169.143335 
L 320.892898 135.783325 
L 322.95638 178.836088 
L 325.019862 205.514685 
L 327.083345 107.975475 
L 329.146827 120.773673 
L 331.210309 127.408034 
L 333.273791 128.866652 
L 335.337274 97.247574 
L 337.400756 132.066201 
L 339.464238 131.17221 
L 341.527721 132.771984 
L 343.591203 115.033305 
L 345.654685 129.948852 
L 347.718167 163.591175 
L 349.78165 171.542997 
L 351.845132 214.078185 
L 353.908614 168.437552 
L 355.972096 189.328728 
L 358.035579 181.23575 
L 360.099061 231.440447 
L 362.162543 214.501655 
L 364.226026 190.081563 
L 366.289508 194.551522 
L 368.35299 153.898422 
L 370.416472 137.147839 
L 372.479955 134.654072 
L 374.543437 79.179529 
L 376.606919 149.663724 
L 378.670402 119.503264 
L 380.733884 123.596805 
L 382.797366 165.285054 
L 384.860848 170.649005 
L 386.924331 123.549753 
L 388.987813 122.608709 
L 391.051295 163.167705 
L 393.114778 171.025423 
L 395.17826 153.098535 
L 397.241742 144.252721 
L 399.305224 143.499886 
L 401.368707 128.160869 
L 403.432189 207.208564 
L 405.495671 214.689864 
L 407.559154 202.126926 
L 409.622636 148.910889 
L 411.686118 201.044726 
L 413.7496 189.987459 
L 415.813083 192.340069 
L 417.876565 181.423959 
L 422.003529 151.686969 
L 424.067012 130.74874 
L 426.130494 186.552648 
L 428.193976 134.983438 
L 430.257459 157.380285 
L 432.320941 154.698309 
L 434.384423 192.340069 
L 436.447905 210.878636 
L 438.511388 173.989711 
L 440.57487 129.101913 
L 442.638352 135.548064 
L 444.701835 160.532782 
L 446.765317 215.207438 
L 448.828799 221.794746 
L 450.892281 138.041831 
L 452.955764 97.623991 
L 455.019246 125.62005 
L 457.082728 111.08092 
L 459.146211 112.116069 
L 461.209693 87.884186 
L 463.273175 135.03049 
L 465.336657 103.834882 
L 467.40014 113.43353 
L 469.463622 169.284491 
L 471.527104 127.784451 
L 473.590586 151.969282 
L 475.654069 154.839466 
L 477.717551 207.726138 
L 479.781033 184.152986 
L 481.844516 174.648442 
L 483.907998 139.31224 
L 485.97148 202.879762 
L 488.034962 139.73571 
L 490.098445 133.007245 
L 492.161927 102.987942 
L 494.225409 129.572435 
L 496.288892 193.563426 
L 498.352374 187.493692 
L 500.415856 199.962525 
L 502.479338 214.548707 
L 504.542821 184.294143 
L 506.606303 258.589566 
L 508.669785 199.115586 
L 510.733268 260.236393 
L 512.79675 154.792414 
L 514.860232 119.738525 
L 516.923714 127.97266 
L 518.987197 171.354788 
L 521.050679 120.161995 
L 523.114161 110.092824 
L 525.177643 165.802628 
L 527.241126 146.228913 
L 529.304608 252.237519 
L 531.36809 137.994779 
L 533.431573 266.58844 
L 535.495055 104.258351 
L 537.558537 95.412538 
L 539.622019 279.668951 
L 541.685502 196.621819 
L 543.748984 222.453477 
L 545.812466 124.679006 
L 547.875949 102.564472 
L 549.939431 165.19095 
L 552.002913 140.676754 
L 554.066395 121.3383 
L 556.129878 90.189744 
L 558.19336 134.18355 
L 560.256842 157.145024 
L 562.320325 132.960193 
L 564.383807 103.505516 
L 566.447289 219.018666 
L 568.510771 126.419937 
L 570.574254 205.749946 
L 572.637736 187.117275 
L 574.701218 172.860458 
L 576.764701 125.808259 
L 578.828183 200.856517 
L 580.891665 146.746488 
L 582.955147 184.152986 
L 585.01863 150.745925 
L 587.082112 207.914347 
L 589.145594 156.909763 
L 591.209076 169.89617 
L 593.272559 148.158054 
L 595.336041 140.347388 
L 597.399523 139.500449 
L 599.463006 153.85137 
L 601.526488 169.4727 
L 603.58997 169.990274 
L 605.653452 218.312883 
L 607.716935 202.173979 
L 609.780417 150.463611 
L 611.843899 173.378033 
L 615.970864 158.086068 
L 618.034346 146.699435 
L 620.097828 154.651257 
L 622.161311 132.113254 
L 624.224793 181.047541 
L 626.288275 169.331543 
L 628.351758 173.425085 
L 630.41524 125.572998 
L 632.478722 174.695494 
L 634.542204 120.726621 
L 636.605687 119.597369 
L 638.669169 198.12749 
L 640.732651 139.359292 
L 642.796133 167.96703 
L 644.859616 95.45959 
L 646.923098 151.49876 
L 648.98658 132.913141 
L 651.050063 172.719302 
L 653.113545 131.313366 
L 655.177027 148.910889 
L 657.240509 147.593427 
L 659.303992 170.554901 
L 661.367474 179.494819 
L 663.430956 205.138267 
L 665.494439 175.071912 
L 667.557921 244.99148 
L 669.621403 281.362831 
L 671.684885 208.855391 
L 673.748368 148.816784 
L 675.81185 142.841155 
L 677.875332 181.988585 
L 679.938815 175.730643 
L 682.002297 186.317387 
L 684.065779 201.515248 
L 686.129261 199.727264 
L 686.129261 199.727264 
" clip-path="url(#pb996b11b48)" style="fill: none; stroke: #000000; stroke-width: 1.5; stroke-linecap: square"/>
   </g>
   <g id="line2d_30">
    <path d="M 77.401989 195.104768 
L 79.465471 182.278794 
L 81.528953 255.579848 
L 83.592435 220.415924 
L 85.655918 237.395396 
L 87.7194 248.617104 
L 89.782882 217.357778 
L 91.846365 168.474576 
L 93.909847 142.534654 
L 95.973329 177.492442 
L 98.036811 145.955113 
L 100.100294 185.330334 
L 102.163776 186.056278 
L 104.227258 181.097594 
L 106.290741 204.293549 
L 108.354223 206.059546 
L 110.417705 193.064719 
L 112.481187 186.112969 
L 114.54467 213.633404 
L 116.608152 251.339139 
L 118.671634 241.974956 
L 120.735117 201.721481 
L 122.798599 208.820757 
L 124.862081 194.202191 
L 126.925563 192.93643 
L 128.989046 193.572779 
L 131.052528 192.908768 
L 133.11601 204.426358 
L 135.179492 231.309176 
L 137.242975 272.421426 
L 139.306457 257.651574 
L 141.369939 240.046934 
L 143.433422 279.728642 
L 145.496904 285.730338 
L 147.560386 228.785517 
L 149.623868 245.273688 
L 151.687351 219.701332 
L 153.750833 256.577611 
L 155.814315 217.863456 
L 157.877798 224.703355 
L 159.94128 215.896746 
L 162.004762 228.880765 
L 164.068244 275.486782 
L 166.131727 302.506771 
L 168.195209 278.397355 
L 170.258691 268.044859 
L 172.322174 241.886917 
L 174.385656 235.671643 
L 176.449138 271.141344 
L 178.51262 271.199713 
L 180.576103 246.375155 
L 182.639585 248.916346 
L 184.703067 236.660195 
L 186.766549 258.308843 
L 188.830032 238.898107 
L 190.893514 200.040282 
L 192.956996 194.414695 
L 195.020479 188.330873 
L 197.083961 185.640214 
L 199.147443 190.170186 
L 201.210925 200.934272 
L 203.274408 241.8704 
L 205.33789 239.196531 
L 207.401372 235.685643 
L 209.464855 226.264942 
L 211.528337 191.194175 
L 213.591819 178.686777 
L 215.655301 190.262927 
L 217.718784 177.870472 
L 219.782266 175.031057 
L 221.845748 188.511184 
L 223.909231 177.127033 
L 225.972713 173.652527 
L 228.036195 199.734445 
L 230.099677 202.374176 
L 232.16316 192.985475 
L 234.226642 218.555842 
L 236.290124 216.135051 
L 238.353607 202.229549 
L 240.417089 205.094642 
L 242.480571 237.827038 
L 244.544053 241.494278 
L 246.607536 230.485706 
L 248.671018 229.899328 
L 250.7345 215.333203 
L 252.797982 249.905179 
L 254.861465 240.92386 
L 256.924947 247.031436 
L 258.988429 272.507002 
L 261.051912 270.035098 
L 263.115394 268.275257 
L 265.178876 271.935871 
L 267.242358 246.224315 
L 269.305841 232.550393 
L 273.432805 239.728723 
L 275.496288 214.076295 
L 277.55977 245.129558 
L 279.623252 281.314709 
L 281.686734 262.913788 
L 283.750217 150.349219 
L 285.813699 182.943189 
L 287.877181 152.182309 
L 289.940664 168.626921 
L 292.004146 265.553503 
L 294.067628 221.889909 
L 296.13111 223.027319 
L 298.194593 203.386787 
L 300.258075 226.337287 
L 302.321557 233.172014 
L 304.385039 223.438836 
L 306.448522 193.71061 
L 308.512004 185.847327 
L 310.575486 181.665878 
L 312.638969 214.751343 
L 314.702451 226.758843 
L 316.765933 205.150899 
L 318.829415 212.694577 
L 320.892898 174.818496 
L 322.95638 247.512004 
L 325.019862 252.831381 
L 327.083345 201.667957 
L 329.146827 228.026441 
L 331.210309 240.786339 
L 333.273791 224.324957 
L 335.337274 215.498901 
L 337.400756 238.931311 
L 339.464238 232.159241 
L 341.527721 232.838255 
L 343.591203 229.130992 
L 345.654685 260.963184 
L 347.718167 225.149777 
L 349.78165 235.507649 
L 351.845132 243.345862 
L 353.908614 244.55149 
L 355.972096 248.434541 
L 358.035579 250.808901 
L 360.099061 275.894166 
L 362.162543 266.17269 
L 364.226026 226.373722 
L 366.289508 234.312091 
L 368.35299 209.156737 
L 370.416472 205.944469 
L 372.479955 187.976824 
L 374.543437 167.988309 
L 376.606919 200.342737 
L 378.670402 195.566719 
L 380.733884 208.869587 
L 382.797366 199.528716 
L 384.860848 194.099937 
L 386.924331 162.039086 
L 388.987813 156.93487 
L 391.051295 182.660941 
L 393.114778 203.027633 
L 395.17826 181.102769 
L 397.241742 156.861877 
L 399.305224 189.636936 
L 401.368707 171.958596 
L 403.432189 194.858412 
L 405.495671 228.246743 
L 407.559154 235.974319 
L 409.622636 204.380482 
L 411.686118 206.813169 
L 413.7496 220.188442 
L 415.813083 223.193039 
L 417.876565 213.777862 
L 419.940047 196.755454 
L 422.003529 214.323105 
L 424.067012 215.882636 
L 426.130494 246.4223 
L 428.193976 215.08508 
L 430.257459 217.899881 
L 432.320941 221.973729 
L 434.384423 260.698506 
L 436.447905 257.456058 
L 438.511388 247.588616 
L 440.57487 174.070923 
L 442.638352 163.043539 
L 444.701835 182.500733 
L 446.765317 222.108035 
L 448.828799 226.663692 
L 450.892281 135.52724 
L 452.955764 137.526072 
L 455.019246 165.47743 
L 457.082728 135.908538 
L 459.146211 123.632005 
L 461.209693 129.177234 
L 463.273175 139.66348 
L 467.40014 116.349105 
L 469.463622 117.988163 
L 471.527104 144.944951 
L 473.590586 175.809169 
L 475.654069 168.39541 
L 477.717551 212.966081 
L 479.781033 199.618625 
L 481.844516 210.71859 
L 483.907998 177.021299 
L 485.97148 196.900799 
L 488.034962 177.152392 
L 490.098445 164.161064 
L 492.161927 149.46684 
L 494.225409 165.768346 
L 496.288892 225.200286 
L 498.352374 197.063279 
L 500.415856 211.187351 
L 502.479338 217.140994 
L 504.542821 164.931637 
L 506.606303 251.040228 
L 508.669785 200.821873 
L 510.733268 250.247466 
L 512.79675 180.057829 
L 514.860232 181.878013 
L 516.923714 155.775716 
L 518.987197 222.942662 
L 521.050679 177.780552 
L 523.114161 170.344561 
L 525.177643 195.563475 
L 527.241126 186.584343 
L 529.304608 258.962011 
L 531.36809 197.879718 
L 533.431573 301.658864 
L 535.495055 183.252346 
L 537.558537 210.825451 
L 539.622019 244.670955 
L 541.685502 290.749863 
L 543.748984 278.691738 
L 545.812466 219.974998 
L 547.875949 236.917135 
L 549.939431 190.561991 
L 552.002913 173.042708 
L 554.066395 162.997162 
L 556.129878 170.367179 
L 558.19336 241.120243 
L 560.256842 214.787643 
L 562.320325 214.595101 
L 564.383807 216.970116 
L 566.447289 255.692559 
L 568.510771 187.680366 
L 570.574254 241.730076 
L 572.637736 230.180441 
L 574.701218 194.17347 
L 576.764701 175.665234 
L 578.828183 264.087946 
L 580.891665 204.90054 
L 582.955147 212.459537 
L 585.01863 189.429063 
L 587.082112 242.697947 
L 589.145594 208.51128 
L 591.209076 185.080403 
L 593.272559 189.654475 
L 595.336041 183.539559 
L 597.399523 180.98364 
L 599.463006 206.078139 
L 601.526488 194.783506 
L 603.58997 224.874191 
L 605.653452 260.511457 
L 607.716935 222.326874 
L 609.780417 212.120082 
L 611.843899 215.507358 
L 613.907382 223.411607 
L 615.970864 198.128059 
L 618.034346 199.318085 
L 620.097828 220.866066 
L 622.161311 221.420857 
L 624.224793 215.683886 
L 626.288275 211.760687 
L 628.351758 225.083713 
L 630.41524 226.744339 
L 632.478722 200.653792 
L 634.542204 213.118873 
L 638.669169 211.049868 
L 640.732651 203.980023 
L 642.796133 204.715553 
L 644.859616 195.944418 
L 646.923098 208.041663 
L 648.98658 215.675196 
L 651.050063 231.65084 
L 653.113545 256.16626 
L 655.177027 267.704482 
L 657.240509 274.197175 
L 659.303992 233.89076 
L 661.367474 240.664763 
L 663.430956 233.535207 
L 665.494439 236.442734 
L 667.557921 296.637285 
L 669.621403 324.72 
L 671.684885 197.927587 
L 673.748368 223.657897 
L 675.81185 204.368386 
L 677.875332 208.275977 
L 679.938815 217.215418 
L 684.065779 248.186853 
L 686.129261 268.412594 
L 686.129261 268.412594 
" clip-path="url(#pb996b11b48)" style="fill: none; stroke-dasharray: 3.7,1.6; stroke-dashoffset: 0; stroke: #4fa8c8"/>
   </g>
   <g id="line2d_31">
    <path d="M 77.401989 110.410808 
L 79.465471 101.34901 
L 81.528953 179.70362 
L 83.592435 149.382474 
L 85.655918 171.446219 
L 87.7194 189.213231 
L 89.782882 164.539217 
L 91.846365 123.08437 
L 93.909847 104.822272 
L 95.973329 137.252142 
L 98.036811 109.425371 
L 100.100294 139.15288 
L 102.163776 140.523596 
L 104.227258 136.610284 
L 106.290741 161.441284 
L 108.354223 165.272252 
L 110.417705 154.733524 
L 112.481187 150.603969 
L 114.54467 181.282587 
L 116.608152 182.942554 
L 118.671634 174.522587 
L 120.735117 135.550102 
L 122.798599 144.016226 
L 124.862081 131.365554 
L 126.925563 132.208647 
L 128.989046 132.176595 
L 131.052528 134.310481 
L 133.11601 148.902954 
L 135.179492 139.231557 
L 137.242975 181.703563 
L 139.306457 168.119254 
L 141.369939 152.402167 
L 143.433422 163.072511 
L 145.496904 169.44684 
L 147.560386 113.141791 
L 149.623868 130.525473 
L 151.687351 104.773539 
L 153.750833 143.025674 
L 155.814315 105.904591 
L 157.877798 114.563267 
L 159.94128 107.651493 
L 162.004762 122.864118 
L 164.068244 140.304062 
L 166.131727 168.288762 
L 168.195209 145.352945 
L 170.258691 136.375954 
L 172.322174 111.788707 
L 174.385656 107.332788 
L 176.449138 144.744953 
L 178.51262 146.560401 
L 180.576103 124.012624 
L 182.639585 129.011949 
L 184.703067 119.375632 
L 186.766549 143.801485 
L 188.830032 127.320683 
L 190.893514 88.895722 
L 192.956996 86.492793 
L 195.020479 83.772651 
L 197.083961 84.582639 
L 199.147443 92.742936 
L 201.210925 107.271196 
L 203.274408 152.098324 
L 205.33789 153.414551 
L 207.401372 153.995052 
L 209.464855 148.826664 
L 211.528337 118.124303 
L 213.591819 110.076716 
L 215.655301 126.243592 
L 217.718784 118.545875 
L 219.782266 120.494126 
L 221.845748 138.85135 
L 223.909231 130.87929 
L 225.972713 128.959159 
L 228.036195 160.220199 
L 230.099677 167.329023 
L 232.16316 162.940705 
L 234.226642 193.529367 
L 236.290124 196.57137 
L 238.353607 186.64456 
L 240.417089 156.61822 
L 242.480571 155.914762 
L 244.544053 160.736207 
L 246.607536 153.599454 
L 248.671018 118.5505 
L 250.7345 107.152886 
L 252.797982 144.99698 
L 254.861465 139.389894 
L 256.924947 148.971775 
L 258.988429 178.019968 
L 261.051912 140.631946 
L 263.115394 141.695246 
L 265.178876 148.280359 
L 267.242358 125.592928 
L 269.305841 115.041072 
L 273.432805 128.73557 
L 275.496288 106.486044 
L 277.55977 141.032993 
L 279.623252 178.143555 
L 281.686734 163.419439 
L 283.750217 54.618964 
L 285.813699 91.032791 
L 287.877181 64.206303 
L 289.940664 84.669127 
L 292.004146 185.693909 
L 294.067628 145.77503 
L 296.13111 151.172405 
L 298.194593 135.871059 
L 300.258075 163.165011 
L 302.321557 136.041393 
L 304.385039 121.480577 
L 306.448522 94.78895 
L 308.512004 90.055501 
L 310.575486 89.086535 
L 312.638969 125.465856 
L 314.702451 140.849049 
L 316.765933 122.681642 
L 318.829415 133.747362 
L 320.892898 99.483066 
L 322.95638 175.864987 
L 325.019862 183.169547 
L 327.083345 135.835913 
L 329.146827 127.8901 
L 331.210309 126.42456 
L 333.273791 109.631759 
L 335.337274 103.460956 
L 337.400756 114.356197 
L 339.464238 109.668503 
L 341.527721 112.532285 
L 343.591203 111.084653 
L 345.654685 143.925646 
L 347.718167 78.079185 
L 349.78165 90.251589 
L 351.845132 99.985238 
L 353.908614 103.164891 
L 355.972096 109.102271 
L 358.035579 113.608987 
L 360.099061 140.903715 
L 362.162543 133.467874 
L 364.226026 96.029883 
L 366.289508 106.403328 
L 368.35299 83.756834 
L 370.416472 83.126343 
L 372.479955 67.812405 
L 374.543437 50.548723 
L 376.606919 85.69426 
L 378.670402 83.782961 
L 380.733884 100.018661 
L 382.797366 93.66566 
L 384.860848 91.30486 
L 386.924331 62.365707 
L 388.987813 60.462473 
L 391.051295 89.454045 
L 393.114778 113.114355 
L 395.17826 94.582607 
L 397.241742 73.795207 
L 399.305224 109.892845 
L 401.368707 95.795657 
L 403.432189 122.337518 
L 407.559154 143.315414 
L 409.622636 114.950329 
L 411.686118 120.673576 
L 413.7496 136.448375 
L 415.813083 142.863976 
L 417.876565 136.92005 
L 419.940047 123.428823 
L 422.003529 144.585642 
L 424.067012 149.108626 
L 426.130494 148.096954 
L 428.193976 119.955108 
L 430.257459 125.935185 
L 432.320941 133.321192 
L 434.384423 175.398156 
L 436.447905 175.525223 
L 438.511388 169.143604 
L 440.57487 97.943929 
L 442.638352 90.513689 
L 444.701835 113.620499 
L 446.765317 156.9171 
L 448.828799 164.442384 
L 450.892281 75.837833 
L 452.955764 74.884488 
L 455.019246 106.205434 
L 457.082728 80.034197 
L 459.146211 71.243932 
L 461.209693 80.064538 
L 463.273175 93.515049 
L 465.336657 84.007933 
L 467.40014 76.211721 
L 469.463622 79.635105 
L 471.527104 72.249836 
L 473.590586 106.412098 
L 475.654069 102.394111 
L 477.717551 150.300244 
L 479.781033 139.436822 
L 481.844516 154.028386 
L 483.907998 123.926293 
L 485.97148 147.399369 
L 488.034962 117.687441 
L 490.098445 107.950735 
L 492.161927 96.56909 
L 494.225409 115.515148 
L 496.288892 178.276714 
L 498.352374 153.548334 
L 500.415856 170.900916 
L 502.479338 180.238999 
L 504.542821 129.72564 
L 506.606303 182.726133 
L 508.669785 116.653531 
L 510.733268 166.467585 
L 512.79675 74.201209 
L 514.860232 78.450906 
L 516.923714 54.833611 
L 518.987197 124.536253 
L 521.050679 81.962901 
L 523.114161 77.166875 
L 525.177643 105.07635 
L 527.241126 98.837706 
L 529.304608 174.006881 
L 531.36809 115.150085 
L 533.431573 221.813243 
L 535.495055 106.346209 
L 537.558537 130.261781 
L 539.622019 128.617494 
L 541.685502 138.800161 
L 543.748984 128.519701 
L 545.812466 71.632767 
L 547.875949 90.45647 
L 549.939431 45.87156 
L 552.002913 30.331679 
L 554.066395 22.32 
L 556.129878 31.774853 
L 558.19336 104.662765 
L 560.256842 80.512855 
L 562.320325 82.553972 
L 564.383807 87.211525 
L 566.447289 128.209968 
L 568.510771 62.576876 
L 570.574254 119.053757 
L 572.637736 109.978598 
L 574.701218 76.493524 
L 576.764701 60.541209 
L 578.828183 151.579322 
L 580.891665 95.053577 
L 582.955147 105.320188 
L 585.01863 85.041159 
L 587.082112 141.108541 
L 589.145594 109.765219 
L 591.209076 89.222696 
L 593.272559 96.663441 
L 595.336041 93.525429 
L 597.399523 93.990292 
L 599.463006 122.149126 
L 601.526488 113.961364 
L 603.58997 147.198223 
L 605.653452 186.020068 
L 607.716935 151.070662 
L 609.780417 144.123508 
L 611.843899 150.09342 
L 613.907382 161.351234 
L 615.970864 138.208943 
L 618.034346 142.823913 
L 620.097828 166.45629 
L 622.161311 142.456913 
L 624.224793 114.520575 
L 626.288275 113.413144 
L 628.351758 129.594447 
L 630.41524 134.155399 
L 632.478722 90.122558 
L 634.542204 105.177733 
L 638.669169 108.248945 
L 640.732651 103.786409 
L 642.796133 107.283422 
L 644.859616 101.315253 
L 646.923098 102.272742 
L 648.98658 112.409355 
L 651.050063 130.915644 
L 653.113545 158.017537 
L 655.177027 134.378689 
L 657.240509 143.090929 
L 659.303992 103.960487 
L 661.367474 113.109402 
L 663.430956 108.396228 
L 665.494439 113.759257 
L 667.557921 176.452408 
L 669.621403 207.074471 
L 671.684885 82.861865 
L 673.748368 86.908299 
L 675.81185 69.910951 
L 677.875332 76.151576 
L 679.938815 87.456663 
L 684.065779 123.29613 
L 686.129261 146.015995 
L 686.129261 146.015995 
" clip-path="url(#pb996b11b48)" style="fill: none; stroke-dasharray: 3.7,1.6; stroke-dashoffset: 0; stroke: #4fa8c8"/>
   </g>
   <g id="patch_3">
    <path d="M 46.965625 339.84 
L 46.965625 7.2 
" style="fill: none; stroke: #000000; stroke-width: 0.8; stroke-linejoin: miter; stroke-linecap: square"/>
   </g>
   <g id="patch_4">
    <path d="M 716.565625 339.84 
L 716.565625 7.2 
" style="fill: none; stroke: #000000; stroke-width: 0.8; stroke-linejoin: miter; stroke-linecap: square"/>
   </g>
   <g id="patch_5">
    <path d="M 46.965625 339.84 
L 716.565625 339.84 
" style="fill: none; stroke: #000000; stroke-width: 0.8; stroke-linejoin: miter; stroke-linecap: square"/>
   </g>
   <g id="patch_6">
    <path d="M 46.965625 7.2 
L 716.565625 7.2 
" style="fill: none; stroke: #000000; stroke-width: 0.8; stroke-linejoin: miter; stroke-linecap: square"/>
   </g>
   <g id="legend_1">
    <g id="patch_7">
     <path d="M 53.965625 59.234375 
L 208.632813 59.234375 
Q 210.632813 59.234375 210.632813 57.234375 
L 210.632813 14.2 
Q 210.632813 12.2 208.632813 12.2 
L 53.965625 12.2 
Q 51.965625 12.2 51.965625 14.2 
L 51.965625 57.234375 
Q 51.965625 59.234375 53.965625 59.234375 
z
" style="fill: #ffffff; opacity: 0.8; stroke: #cccccc; stroke-linejoin: miter"/>
    </g>
    <g id="line2d_32">
     <path d="M 55.965625 20.298437 
L 65.965625 20.298437 
L 75.965625 20.298437 
" style="fill: none; stroke: #000000; stroke-width: 1.5; stroke-linecap: square"/>
    </g>
    <g id="text_17">
     <!-- Ground truth -->
     <g transform="translate(83.965625 23.798437) scale(0.1 -0.1)">
      <defs>
       <path id="DejaVuSans-47" d="M 3809 666 
L 3809 1919 
L 2778 1919 
L 2778 2438 
L 4434 2438 
L 4434 434 
Q 4069 175 3628 42 
Q 3188 -91 2688 -91 
Q 1594 -91 976 548 
Q 359 1188 359 2328 
Q 359 3472 976 4111 
Q 1594 4750 2688 4750 
Q 3144 4750 3555 4637 
Q 3966 4525 4313 4306 
L 4313 3634 
Q 3963 3931 3569 4081 
Q 3175 4231 2741 4231 
Q 1884 4231 1454 3753 
Q 1025 3275 1025 2328 
Q 1025 1384 1454 906 
Q 1884 428 2741 428 
Q 3075 428 3337 486 
Q 3600 544 3809 666 
z
" transform="scale(0.015625)"/>
       <path id="DejaVuSans-75" d="M 544 1381 
L 544 3500 
L 1119 3500 
L 1119 1403 
Q 1119 906 1312 657 
Q 1506 409 1894 409 
Q 2359 409 2629 706 
Q 2900 1003 2900 1516 
L 2900 3500 
L 3475 3500 
L 3475 0 
L 2900 0 
L 2900 538 
Q 2691 219 2414 64 
Q 2138 -91 1772 -91 
Q 1169 -91 856 284 
Q 544 659 544 1381 
z
M 1991 3584 
L 1991 3584 
z
" transform="scale(0.015625)"/>
       <path id="DejaVuSans-64" d="M 2906 2969 
L 2906 4863 
L 3481 4863 
L 3481 0 
L 2906 0 
L 2906 525 
Q 2725 213 2448 61 
Q 2172 -91 1784 -91 
Q 1150 -91 751 415 
Q 353 922 353 1747 
Q 353 2572 751 3078 
Q 1150 3584 1784 3584 
Q 2172 3584 2448 3432 
Q 2725 3281 2906 2969 
z
M 947 1747 
Q 947 1113 1208 752 
Q 1469 391 1925 391 
Q 2381 391 2643 752 
Q 2906 1113 2906 1747 
Q 2906 2381 2643 2742 
Q 2381 3103 1925 3103 
Q 1469 3103 1208 2742 
Q 947 2381 947 1747 
z
" transform="scale(0.015625)"/>
       <path id="DejaVuSans-68" d="M 3513 2113 
L 3513 0 
L 2938 0 
L 2938 2094 
Q 2938 2591 2744 2837 
Q 2550 3084 2163 3084 
Q 1697 3084 1428 2787 
Q 1159 2491 1159 1978 
L 1159 0 
L 581 0 
L 581 4863 
L 1159 4863 
L 1159 2956 
Q 1366 3272 1645 3428 
Q 1925 3584 2291 3584 
Q 2894 3584 3203 3211 
Q 3513 2838 3513 2113 
z
" transform="scale(0.015625)"/>
      </defs>
      <use xlink:href="#DejaVuSans-47"/>
      <use xlink:href="#DejaVuSans-72" transform="translate(77.490234 0)"/>
      <use xlink:href="#DejaVuSans-6f" transform="translate(116.353516 0)"/>
      <use xlink:href="#DejaVuSans-75" transform="translate(177.535156 0)"/>
      <use xlink:href="#DejaVuSans-6e" transform="translate(240.914062 0)"/>
      <use xlink:href="#DejaVuSans-64" transform="translate(304.292969 0)"/>
      <use xlink:href="#DejaVuSans-20" transform="translate(367.769531 0)"/>
      <use xlink:href="#DejaVuSans-74" transform="translate(399.556641 0)"/>
      <use xlink:href="#DejaVuSans-72" transform="translate(438.765625 0)"/>
      <use xlink:href="#DejaVuSans-75" transform="translate(479.878906 0)"/>
      <use xlink:href="#DejaVuSans-74" transform="translate(543.257812 0)"/>
      <use xlink:href="#DejaVuSans-68" transform="translate(582.466797 0)"/>
     </g>
    </g>
    <g id="line2d_33">
     <path d="M 55.965625 34.976562 
L 65.965625 34.976562 
L 75.965625 34.976562 
" style="fill: none; stroke-dasharray: 3.7,1.6; stroke-dashoffset: 0; stroke: #4fa8c8"/>
    </g>
    <g id="text_18">
     <!-- Upper and lower bounds -->
     <g transform="translate(83.965625 38.476562) scale(0.1 -0.1)">
      <defs>
       <path id="DejaVuSans-55" d="M 556 4666 
L 1191 4666 
L 1191 1831 
Q 1191 1081 1462 751 
Q 1734 422 2344 422 
Q 2950 422 3222 751 
Q 3494 1081 3494 1831 
L 3494 4666 
L 4128 4666 
L 4128 1753 
Q 4128 841 3676 375 
Q 3225 -91 2344 -91 
Q 1459 -91 1007 375 
Q 556 841 556 1753 
L 556 4666 
z
" transform="scale(0.015625)"/>
       <path id="DejaVuSans-70" d="M 1159 525 
L 1159 -1331 
L 581 -1331 
L 581 3500 
L 1159 3500 
L 1159 2969 
Q 1341 3281 1617 3432 
Q 1894 3584 2278 3584 
Q 2916 3584 3314 3078 
Q 3713 2572 3713 1747 
Q 3713 922 3314 415 
Q 2916 -91 2278 -91 
Q 1894 -91 1617 61 
Q 1341 213 1159 525 
z
M 3116 1747 
Q 3116 2381 2855 2742 
Q 2594 3103 2138 3103 
Q 1681 3103 1420 2742 
Q 1159 2381 1159 1747 
Q 1159 1113 1420 752 
Q 1681 391 2138 391 
Q 2594 391 2855 752 
Q 3116 1113 3116 1747 
z
" transform="scale(0.015625)"/>
       <path id="DejaVuSans-6c" d="M 603 4863 
L 1178 4863 
L 1178 0 
L 603 0 
L 603 4863 
z
" transform="scale(0.015625)"/>
       <path id="DejaVuSans-77" d="M 269 3500 
L 844 3500 
L 1563 769 
L 2278 3500 
L 2956 3500 
L 3675 769 
L 4391 3500 
L 4966 3500 
L 4050 0 
L 3372 0 
L 2619 2869 
L 1863 0 
L 1184 0 
L 269 3500 
z
" transform="scale(0.015625)"/>
       <path id="DejaVuSans-62" d="M 3116 1747 
Q 3116 2381 2855 2742 
Q 2594 3103 2138 3103 
Q 1681 3103 1420 2742 
Q 1159 2381 1159 1747 
Q 1159 1113 1420 752 
Q 1681 391 2138 391 
Q 2594 391 2855 752 
Q 3116 1113 3116 1747 
z
M 1159 2969 
Q 1341 3281 1617 3432 
Q 1894 3584 2278 3584 
Q 2916 3584 3314 3078 
Q 3713 2572 3713 1747 
Q 3713 922 3314 415 
Q 2916 -91 2278 -91 
Q 1894 -91 1617 61 
Q 1341 213 1159 525 
L 1159 0 
L 581 0 
L 581 4863 
L 1159 4863 
L 1159 2969 
z
" transform="scale(0.015625)"/>
      </defs>
      <use xlink:href="#DejaVuSans-55"/>
      <use xlink:href="#DejaVuSans-70" transform="translate(73.193359 0)"/>
      <use xlink:href="#DejaVuSans-70" transform="translate(136.669922 0)"/>
      <use xlink:href="#DejaVuSans-65" transform="translate(200.146484 0)"/>
      <use xlink:href="#DejaVuSans-72" transform="translate(261.669922 0)"/>
      <use xlink:href="#DejaVuSans-20" transform="translate(302.783203 0)"/>
      <use xlink:href="#DejaVuSans-61" transform="translate(334.570312 0)"/>
      <use xlink:href="#DejaVuSans-6e" transform="translate(395.849609 0)"/>
      <use xlink:href="#DejaVuSans-64" transform="translate(459.228516 0)"/>
      <use xlink:href="#DejaVuSans-20" transform="translate(522.705078 0)"/>
      <use xlink:href="#DejaVuSans-6c" transform="translate(554.492188 0)"/>
      <use xlink:href="#DejaVuSans-6f" transform="translate(582.275391 0)"/>
      <use xlink:href="#DejaVuSans-77" transform="translate(643.457031 0)"/>
      <use xlink:href="#DejaVuSans-65" transform="translate(725.244141 0)"/>
      <use xlink:href="#DejaVuSans-72" transform="translate(786.767578 0)"/>
      <use xlink:href="#DejaVuSans-20" transform="translate(827.880859 0)"/>
      <use xlink:href="#DejaVuSans-62" transform="translate(859.667969 0)"/>
      <use xlink:href="#DejaVuSans-6f" transform="translate(923.144531 0)"/>
      <use xlink:href="#DejaVuSans-75" transform="translate(984.326172 0)"/>
      <use xlink:href="#DejaVuSans-6e" transform="translate(1047.705078 0)"/>
      <use xlink:href="#DejaVuSans-64" transform="translate(1111.083984 0)"/>
      <use xlink:href="#DejaVuSans-73" transform="translate(1174.560547 0)"/>
     </g>
    </g>
    <g id="patch_8">
     <path d="M 55.965625 53.154687 
L 75.965625 53.154687 
L 75.965625 46.154687 
L 55.965625 46.154687 
z
" style="fill: #4fa8c8; fill-opacity: 0.2; stroke: #4fa8c8; stroke-opacity: 0.2; stroke-linejoin: miter"/>
    </g>
    <g id="text_19">
     <!-- Prediction interval -->
     <g transform="translate(83.965625 53.154687) scale(0.1 -0.1)">
      <defs>
       <path id="DejaVuSans-50" d="M 1259 4147 
L 1259 2394 
L 2053 2394 
Q 2494 2394 2734 2622 
Q 2975 2850 2975 3272 
Q 2975 3691 2734 3919 
Q 2494 4147 2053 4147 
L 1259 4147 
z
M 628 4666 
L 2053 4666 
Q 2838 4666 3239 4311 
Q 3641 3956 3641 3272 
Q 3641 2581 3239 2228 
Q 2838 1875 2053 1875 
L 1259 1875 
L 1259 0 
L 628 0 
L 628 4666 
z
" transform="scale(0.015625)"/>
       <path id="DejaVuSans-63" d="M 3122 3366 
L 3122 2828 
Q 2878 2963 2633 3030 
Q 2388 3097 2138 3097 
Q 1578 3097 1268 2742 
Q 959 2388 959 1747 
Q 959 1106 1268 751 
Q 1578 397 2138 397 
Q 2388 397 2633 464 
Q 2878 531 3122 666 
L 3122 134 
Q 2881 22 2623 -34 
Q 2366 -91 2075 -91 
Q 1284 -91 818 406 
Q 353 903 353 1747 
Q 353 2603 823 3093 
Q 1294 3584 2113 3584 
Q 2378 3584 2631 3529 
Q 2884 3475 3122 3366 
z
" transform="scale(0.015625)"/>
       <path id="DejaVuSans-76" d="M 191 3500 
L 800 3500 
L 1894 563 
L 2988 3500 
L 3597 3500 
L 2284 0 
L 1503 0 
L 191 3500 
z
" transform="scale(0.015625)"/>
      </defs>
      <use xlink:href="#DejaVuSans-50"/>
      <use xlink:href="#DejaVuSans-72" transform="translate(58.552734 0)"/>
      <use xlink:href="#DejaVuSans-65" transform="translate(97.416016 0)"/>
      <use xlink:href="#DejaVuSans-64" transform="translate(158.939453 0)"/>
      <use xlink:href="#DejaVuSans-69" transform="translate(222.416016 0)"/>
      <use xlink:href="#DejaVuSans-63" transform="translate(250.199219 0)"/>
      <use xlink:href="#DejaVuSans-74" transform="translate(305.179688 0)"/>
      <use xlink:href="#DejaVuSans-69" transform="translate(344.388672 0)"/>
      <use xlink:href="#DejaVuSans-6f" transform="translate(372.171875 0)"/>
      <use xlink:href="#DejaVuSans-6e" transform="translate(433.353516 0)"/>
      <use xlink:href="#DejaVuSans-20" transform="translate(496.732422 0)"/>
      <use xlink:href="#DejaVuSans-69" transform="translate(528.519531 0)"/>
      <use xlink:href="#DejaVuSans-6e" transform="translate(556.302734 0)"/>
      <use xlink:href="#DejaVuSans-74" transform="translate(619.681641 0)"/>
      <use xlink:href="#DejaVuSans-65" transform="translate(658.890625 0)"/>
      <use xlink:href="#DejaVuSans-72" transform="translate(720.414062 0)"/>
      <use xlink:href="#DejaVuSans-76" transform="translate(761.527344 0)"/>
      <use xlink:href="#DejaVuSans-61" transform="translate(820.707031 0)"/>
      <use xlink:href="#DejaVuSans-6c" transform="translate(881.986328 0)"/>
     </g>
    </g>
   </g>
  </g>
 </g>
 <defs>
  <clipPath id="pb996b11b48">
   <rect x="46.965625" y="7.2" width="669.6" height="332.64"/>
  </clipPath>
 </defs>
</svg>
