<?xml version="1.0" encoding="utf-8" standalone="no"?>
<!DOCTYPE svg PUBLIC "-//W3C//DTD SVG 1.1//EN"
  "http://www.w3.org/Graphics/SVG/1.1/DTD/svg11.dtd">
<svg xmlns:xlink="http://www.w3.org/1999/xlink" width="723.765625pt" height="377.39625pt" viewBox="0 0 723.765625 377.39625" xmlns="http://www.w3.org/2000/svg" version="1.1">
 <metadata>
  <rdf:RDF xmlns:dc="http://purl.org/dc/elements/1.1/" xmlns:cc="http://creativecommons.org/ns#" xmlns:rdf="http://www.w3.org/1999/02/22-rdf-syntax-ns#">
   <cc:Work>
    <dc:type rdf:resource="http://purl.org/dc/dcmitype/StillImage"/>
    <dc:date>2026-05-22T15:45:08.621423</dc:date>
    <dc:format>image/svg+xml</dc:format>
    <dc:creator>
     <cc:Agent>
      <dc:title>Matplotlib v3.10.1, https://matplotlib.org/</dc:title>
     </cc:Agent>
    </dc:creator>
   </cc:Work>
  </rdf:RDF>
 </metadata>
 <defs>
  <style type="text/css">*{stroke-linejoin: round; stroke-linecap: butt}</style>
 </defs>
 <g id="figure_1">
  <g id="patch_1">
   <path d="M 0 377.39625 
L 723.765625 377.39625 
L 723.765625 0 
L 0 0 
z
" style="fill: #ffffff"/>
  </g>
  <g id="axes_1">
   <g id="patch_2">
    <path d="M 46.965625 339.84 
L 716.565625 339.84 
L 716.565625 7.2 
L 46.965625 7.2 
z
" style="fill: #ffffff"/>
   </g>
   <g id="FillBetweenPolyCollection_1">
    <defs>
     <path id="mb87970a743" d="M 77.401989 -287.172385 
L 77.401989 -180.636718 
L 79.465471 -193.031703 
L 81.528953 -107.194291 
L 83.592435 -144.269047 
L 85.655918 -122.17569 
L 87.7194 -105.773936 
L 89.782882 -137.442361 
L 91.846365 -188.585185 
L 93.909847 -213.612893 
L 95.973329 -175.475421 
L 98.036811 -209.085788 
L 100.100294 -169.97749 
L 102.163776 -168.797922 
L 104.227258 -173.827261 
L 106.290741 -146.648794 
L 108.354223 -143.487839 
L 110.417705 -156.816318 
L 112.481187 -163.096157 
L 114.54467 -130.159824 
L 116.608152 -107.883911 
L 118.671634 -117.957908 
L 120.735117 -162.810976 
L 122.798599 -154.007224 
L 124.862081 -169.450321 
L 126.925563 -169.696737 
L 128.989046 -169.361644 
L 131.052528 -168.536902 
L 133.11601 -153.764607 
L 135.179492 -143.974099 
L 137.242975 -96.668537 
L 139.306457 -112.724524 
L 141.369939 -131.593512 
L 143.433422 -103.043131 
L 145.496904 -96.044887 
L 147.560386 -160.157226 
L 149.623868 -140.991285 
L 151.687351 -169.993879 
L 153.750833 -127.474638 
L 155.814315 -170.407316 
L 157.877798 -161.64127 
L 159.94128 -170.54408 
L 162.004762 -154.59024 
L 164.068244 -118.284908 
L 166.131727 -87.156494 
L 168.195209 -113.793032 
L 170.258691 -124.741771 
L 172.322174 -153.473354 
L 174.385656 -159.520413 
L 176.449138 -118.272608 
L 178.51262 -117.161683 
L 180.576103 -143.982358 
L 182.639585 -139.721271 
L 184.703067 -152.120688 
L 186.766549 -126.047536 
L 188.830032 -146.371297 
L 190.893514 -190.067319 
L 192.956996 -194.619162 
L 195.020479 -199.609625 
L 197.083961 -200.681349 
L 199.147443 -193.505286 
L 201.210925 -179.19546 
L 203.274408 -130.656171 
L 205.33789 -131.431929 
L 207.401372 -133.09794 
L 209.464855 -141.363353 
L 211.528337 -178.601281 
L 213.591819 -190.243774 
L 215.655301 -174.546798 
L 217.718784 -185.926015 
L 219.782266 -186.437693 
L 221.845748 -168.42338 
L 223.909231 -179.387307 
L 225.972713 -182.448268 
L 228.036195 -149.996381 
L 230.099677 -144.485519 
L 232.16316 -152.291244 
L 234.226642 -120.509608 
L 236.290124 -120.165006 
L 238.353607 -133.662497 
L 240.417089 -149.043837 
L 242.480571 -130.919502 
L 244.544053 -126.120841 
L 246.607536 -136.399179 
L 248.671018 -156.518121 
L 250.7345 -171.222014 
L 252.797982 -130.23817 
L 254.861465 -138.503249 
L 256.924947 -129.629544 
L 258.988429 -98.773634 
L 261.051912 -121.273274 
L 263.115394 -121.674822 
L 265.178876 -115.882421 
L 267.242358 -143.28599 
L 269.305841 -157.006098 
L 271.369323 -151.087122 
L 273.432805 -145.204854 
L 275.496288 -172.326815 
L 277.55977 -135.200882 
L 279.623252 -93.663016 
L 281.686734 -112.420676 
L 283.750217 -237.731743 
L 285.813699 -198.676934 
L 287.877181 -231.281603 
L 289.940664 -210.397228 
L 292.004146 -98.354103 
L 294.067628 -145.673027 
L 296.13111 -141.981233 
L 298.194593 -161.767179 
L 300.258075 -133.333629 
L 302.321557 -144.755219 
L 304.385039 -158.457874 
L 306.448522 -190.401521 
L 308.512004 -197.538836 
L 310.575486 -200.461548 
L 312.638969 -161.148304 
L 314.702451 -145.650973 
L 316.765933 -168.173163 
L 318.829415 -157.646647 
L 320.892898 -198.488751 
L 322.95638 -114.111475 
L 325.019862 -106.972734 
L 327.083345 -162.734266 
L 329.146827 -152.259474 
L 331.210309 -145.815413 
L 333.273791 -164.588382 
L 335.337274 -173.084049 
L 337.400756 -153.599603 
L 339.464238 -160.092225 
L 341.527721 -158.093372 
L 343.591203 -161.017827 
L 345.654685 -124.359221 
L 347.718167 -181.843498 
L 349.78165 -169.09732 
L 351.845132 -159.157768 
L 353.908614 -156.681697 
L 355.972096 -151.129723 
L 358.035579 -147.241746 
L 360.099061 -117.598793 
L 362.162543 -127.31804 
L 364.226026 -171.045264 
L 366.289508 -160.687133 
L 368.35299 -187.75273 
L 370.416472 -189.934951 
L 372.479955 -208.781058 
L 374.543437 -229.874729 
L 376.606919 -191.673551 
L 378.670402 -195.465963 
L 380.733884 -178.752981 
L 382.797366 -187.643671 
L 384.860848 -192.060289 
L 386.924331 -226.596631 
L 388.987813 -230.570409 
L 391.051295 -199.604733 
L 393.114778 -174.690505 
L 395.17826 -197.598238 
L 397.241742 -223.093816 
L 399.305224 -184.115609 
L 401.368707 -202.109271 
L 403.432189 -174.129886 
L 405.495671 -149.394193 
L 407.559154 -138.940326 
L 409.622636 -172.887339 
L 411.686118 -168.277869 
L 413.7496 -151.78417 
L 415.813083 -146.459086 
L 417.876565 -155.160281 
L 419.940047 -172.439616 
L 422.003529 -150.526705 
L 424.067012 -147.090955 
L 426.130494 -130.327542 
L 428.193976 -164.00287 
L 430.257459 -159.031612 
L 432.320941 -152.552019 
L 434.384423 -106.821501 
L 436.447905 -108.592281 
L 438.511388 -117.797091 
L 440.57487 -199.721398 
L 442.638352 -210.176394 
L 444.701835 -186.090123 
L 446.765317 -139.169535 
L 448.828799 -132.338434 
L 450.892281 -234.08821 
L 452.955764 -233.503506 
L 455.019246 -199.959515 
L 457.082728 -231.518424 
L 459.146211 -243.450282 
L 461.209693 -235.32578 
L 463.273175 -221.783682 
L 465.336657 -233.874468 
L 467.40014 -244.789647 
L 469.463622 -241.931377 
L 471.527104 -230.796016 
L 473.590586 -193.995086 
L 475.654069 -200.473239 
L 477.717551 -148.134043 
L 479.781033 -161.845918 
L 481.844516 -147.310503 
L 483.907998 -183.431313 
L 485.97148 -158.898801 
L 488.034962 -186.902966 
L 490.098445 -199.775338 
L 492.161927 -214.542634 
L 494.225409 -194.598078 
L 496.288892 -125.437639 
L 498.352374 -155.369293 
L 500.415856 -137.559186 
L 502.479338 -128.910506 
L 504.542821 -187.064064 
L 506.606303 -108.327997 
L 508.669785 -174.1607 
L 510.733268 -117.992375 
L 512.79675 -209.901597 
L 514.860232 -206.472969 
L 516.923714 -234.623995 
L 518.987197 -157.15624 
L 521.050679 -206.825965 
L 523.114161 -213.757122 
L 525.177643 -183.691069 
L 527.241126 -192.312415 
L 529.304608 -108.800535 
L 531.36809 -176.698897 
L 533.431573 -57.585285 
L 535.495055 -189.976606 
L 537.558537 -160.837706 
L 539.622019 -142.551113 
L 541.685502 -110.632882 
L 543.748984 -123.284984 
L 545.812466 -188.729833 
L 547.875949 -168.491902 
L 549.939431 -219.916599 
L 552.002913 -238.581797 
L 554.066395 -248.809576 
L 556.129878 -239.29303 
L 558.19336 -157.99226 
L 560.256842 -186.574408 
L 562.320325 -185.535259 
L 564.383807 -181.561797 
L 566.447289 -136.387484 
L 568.510771 -212.044702 
L 570.574254 -149.488094 
L 572.637736 -161.170055 
L 574.701218 -200.513389 
L 576.764701 -220.02643 
L 578.828183 -118.449734 
L 580.891665 -183.95637 
L 582.955147 -173.873242 
L 585.01863 -198.395892 
L 587.082112 -136.513347 
L 589.145594 -173.613949 
L 591.209076 -198.512162 
L 593.272559 -191.718159 
L 595.336041 -196.962912 
L 597.399523 -198.153605 
L 599.463006 -168.016595 
L 601.526488 -179.05187 
L 603.58997 -143.212612 
L 605.653452 -101.072333 
L 607.716935 -142.47701 
L 609.780417 -152.194337 
L 611.843899 -146.904906 
L 613.907382 -136.065462 
L 615.970864 -163.484157 
L 618.034346 -160.205501 
L 620.097828 -134.638428 
L 622.161311 -147.91568 
L 624.224793 -166.927915 
L 626.288275 -169.782834 
L 628.351758 -153.089075 
L 630.41524 -149.574457 
L 632.478722 -189.217984 
L 634.542204 -173.647285 
L 636.605687 -173.373978 
L 638.669169 -173.092889 
L 640.732651 -179.627328 
L 642.796133 -177.238803 
L 644.859616 -185.589264 
L 646.923098 -178.150214 
L 648.98658 -168.09849 
L 651.050063 -148.587071 
L 653.113545 -119.376261 
L 655.177027 -126.165881 
L 657.240509 -117.509961 
L 659.303992 -162.422956 
L 661.367474 -153.416733 
L 663.430956 -160.1273 
L 665.494439 -155.452708 
L 667.557921 -85.898968 
L 669.621403 -52.67625 
L 671.684885 -194.76504 
L 673.748368 -177.85388 
L 675.81185 -198.401136 
L 677.875332 -192.663782 
L 679.938815 -181.210808 
L 682.002297 -162.421907 
L 684.065779 -143.407122 
L 686.129261 -119.105041 
L 686.129261 -225.403551 
L 686.129261 -225.403551 
L 684.065779 -249.720225 
L 682.002297 -268.749647 
L 679.938815 -287.553217 
L 677.875332 -299.019089 
L 675.81185 -304.770539 
L 673.748368 -284.237412 
L 671.684885 -301.036529 
L 669.621403 -158.962332 
L 667.557921 -192.19934 
L 665.494439 -261.766868 
L 663.430956 -266.455378 
L 661.367474 -259.758782 
L 659.303992 -268.778908 
L 657.240509 -223.761373 
L 655.177027 -232.318969 
L 653.113545 -225.409461 
L 651.050063 -254.634652 
L 648.98658 -274.160257 
L 646.923098 -284.226131 
L 644.859616 -291.566356 
L 642.796133 -283.230439 
L 640.732651 -285.63358 
L 638.669169 -279.1122 
L 636.605687 -279.406045 
L 634.542204 -279.692404 
L 632.478722 -295.277409 
L 630.41524 -255.534191 
L 628.351758 -259.063027 
L 626.288275 -275.771142 
L 624.224793 -272.930882 
L 622.161311 -253.821537 
L 620.097828 -240.557152 
L 618.034346 -266.1388 
L 615.970864 -269.431985 
L 613.907382 -242.027748 
L 611.843899 -252.881691 
L 609.780417 -258.18554 
L 607.716935 -248.482871 
L 605.653452 -207.092498 
L 603.58997 -249.247441 
L 601.526488 -285.101347 
L 599.463006 -274.080587 
L 597.399523 -304.231718 
L 595.336041 -303.055125 
L 593.272559 -297.82463 
L 591.209076 -304.632613 
L 589.145594 -279.748504 
L 587.082112 -242.662551 
L 585.01863 -304.559681 
L 582.955147 -280.051608 
L 580.891665 -290.148865 
L 578.828183 -224.656549 
L 576.764701 -326.2476 
L 574.701218 -306.747823 
L 572.637736 -267.419155 
L 570.574254 -255.75177 
L 568.510771 -318.322407 
L 566.447289 -242.679688 
L 564.383807 -287.757456 
L 562.320325 -291.74557 
L 560.256842 -292.799194 
L 558.19336 -264.230051 
L 556.129878 -345.545346 
L 554.066395 -355.07625 
L 552.002913 -344.86143 
L 549.939431 -326.100321 
L 547.875949 -274.571709 
L 545.812466 -294.824315 
L 543.748984 -229.394149 
L 541.685502 -216.756722 
L 539.622019 -248.532265 
L 537.558537 -266.700697 
L 535.495055 -295.85217 
L 533.431573 -163.475052 
L 531.36809 -282.603343 
L 529.304608 -214.718564 
L 527.241126 -298.244586 
L 525.177643 -289.637876 
L 523.114161 -319.718516 
L 521.050679 -312.801795 
L 518.987197 -263.146133 
L 516.923714 -340.62855 
L 514.860232 -312.491985 
L 512.79675 -315.935074 
L 510.733268 -223.927712 
L 508.669785 -280.108672 
L 506.606303 -214.288287 
L 504.542821 -293.037729 
L 502.479338 -234.898816 
L 500.415856 -243.56191 
L 498.352374 -261.38655 
L 496.288892 -231.469256 
L 494.225409 -300.644185 
L 492.161927 -320.603425 
L 490.098445 -305.850208 
L 488.034962 -292.992155 
L 485.97148 -265.002234 
L 483.907998 -289.549209 
L 481.844516 -253.442683 
L 479.781033 -267.99267 
L 477.717551 -254.29539 
L 475.654069 -306.64926 
L 473.590586 -300.185523 
L 471.527104 -337.001125 
L 469.463622 -348.022696 
L 467.40014 -350.895621 
L 465.336657 -339.994375 
L 463.273175 -327.918251 
L 461.209693 -341.474976 
L 459.146211 -349.614046 
L 457.082728 -337.696166 
L 455.019246 -306.151629 
L 452.955764 -339.709863 
L 450.892281 -340.308755 
L 448.828799 -238.573595 
L 446.765317 -245.419336 
L 444.701835 -292.354324 
L 442.638352 -316.454798 
L 440.57487 -306.013903 
L 438.511388 -224.103559 
L 436.447905 -214.912794 
L 434.384423 -213.156649 
L 432.320941 -258.901848 
L 430.257459 -265.395965 
L 428.193976 -270.381395 
L 426.130494 -236.720425 
L 424.067012 -253.385677 
L 422.003529 -256.835946 
L 419.940047 -278.763038 
L 417.876565 -261.497863 
L 415.813083 -252.811005 
L 413.7496 -258.150534 
L 411.686118 -274.657656 
L 409.622636 -279.281525 
L 407.559154 -245.348994 
L 405.495671 -255.816754 
L 403.432189 -280.455879 
L 401.368707 -308.449457 
L 399.305224 -290.470017 
L 397.241742 -329.462648 
L 395.17826 -303.981659 
L 393.114778 -281.088428 
L 391.051295 -306.017207 
L 388.987813 -336.997417 
L 386.924331 -333.038055 
L 384.860848 -298.516244 
L 382.797366 -294.114272 
L 380.733884 -285.237917 
L 378.670402 -301.965573 
L 376.606919 -298.187268 
L 374.543437 -336.402856 
L 372.479955 -315.323282 
L 370.416472 -296.491283 
L 368.35299 -294.323114 
L 366.289508 -267.2722 
L 364.226026 -277.644889 
L 362.162543 -233.932088 
L 360.099061 -224.227522 
L 358.035579 -253.884001 
L 355.972096 -257.786097 
L 353.908614 -263.35184 
L 351.845132 -265.840349 
L 349.78165 -275.793917 
L 347.718167 -288.554284 
L 345.654685 -230.949341 
L 343.591203 -267.507301 
L 341.527721 -264.595894 
L 339.464238 -266.607844 
L 337.400756 -260.126857 
L 335.337274 -279.504772 
L 333.273791 -271.022484 
L 331.210309 -252.148364 
L 329.146827 -258.490656 
L 327.083345 -268.860863 
L 325.019862 -213.113796 
L 322.95638 -220.266624 
L 320.892898 -304.657763 
L 318.829415 -263.829687 
L 316.765933 -274.370886 
L 314.702451 -251.863369 
L 312.638969 -267.375064 
L 310.575486 -306.70296 
L 308.512004 -303.794884 
L 306.448522 -296.671428 
L 304.385039 -264.742114 
L 302.321557 -250.941517 
L 300.258075 -239.394038 
L 298.194593 -267.842272 
L 296.13111 -248.07049 
L 294.067628 -251.776731 
L 292.004146 -204.471869 
L 289.940664 -316.529646 
L 287.877181 -337.428208 
L 285.813699 -304.838172 
L 283.750217 -343.907146 
L 281.686734 -218.610665 
L 279.623252 -199.867445 
L 277.55977 -241.307715 
L 275.496288 -278.447836 
L 273.432805 -251.339955 
L 271.369323 -257.23524 
L 269.305841 -263.168857 
L 267.242358 -249.462942 
L 265.178876 -222.073977 
L 263.115394 -227.880772 
L 261.051912 -227.493766 
L 258.988429 -204.867951 
L 256.924947 -235.738435 
L 254.861465 -244.626776 
L 252.797982 -236.37631 
L 250.7345 -277.374758 
L 248.671018 -262.68508 
L 246.607536 -242.461233 
L 244.544053 -232.197234 
L 242.480571 -237.00862 
L 240.417089 -255.144273 
L 238.353607 -239.776343 
L 236.290124 -226.293254 
L 234.226642 -226.651927 
L 232.16316 -258.447973 
L 230.099677 -250.656724 
L 228.036195 -256.182208 
L 225.972713 -288.648332 
L 223.909231 -285.60202 
L 221.845748 -274.652765 
L 219.782266 -292.681543 
L 217.718784 -292.184331 
L 215.655301 -280.819449 
L 213.591819 -296.530376 
L 211.528337 -284.902554 
L 209.464855 -247.67867 
L 207.401372 -239.427764 
L 205.33789 -237.776281 
L 203.274408 -237.01505 
L 201.210925 -285.568414 
L 199.147443 -299.892074 
L 197.083961 -307.082675 
L 195.020479 -306.025289 
L 192.956996 -301.048778 
L 190.893514 -296.511532 
L 188.830032 -252.715648 
L 186.766549 -232.406571 
L 184.703067 -258.494397 
L 182.639585 -246.109334 
L 180.576103 -250.38487 
L 178.51262 -223.575287 
L 176.449138 -224.585712 
L 174.385656 -265.847525 
L 172.322174 -259.813719 
L 170.258691 -231.096632 
L 168.195209 -220.162443 
L 166.131727 -193.539035 
L 164.068244 -224.681475 
L 162.004762 -260.882627 
L 159.94128 -276.850231 
L 157.877798 -267.958247 
L 155.814315 -276.738149 
L 153.750833 -233.817693 
L 151.687351 -276.351392 
L 149.623868 -247.249714 
L 147.560386 -266.430126 
L 145.496904 -202.332195 
L 143.433422 -209.344858 
L 141.369939 -237.798076 
L 139.306457 -218.94351 
L 137.242975 -202.899729 
L 135.179492 -250.219971 
L 133.11601 -259.914527 
L 131.052528 -274.701454 
L 128.989046 -275.540759 
L 126.925563 -275.889792 
L 124.862081 -275.657706 
L 122.798599 -260.229275 
L 120.735117 -269.047125 
L 118.671634 -224.20842 
L 116.608152 -214.148967 
L 114.54467 -236.438996 
L 112.481187 -269.389858 
L 110.417705 -263.124543 
L 108.354223 -249.810665 
L 106.290741 -252.986039 
L 104.227258 -280.178926 
L 102.163776 -275.164272 
L 100.100294 -276.358334 
L 98.036811 -315.481294 
L 95.973329 -281.885515 
L 93.909847 -320.037666 
L 91.846365 -295.024231 
L 89.782882 -243.895276 
L 87.7194 -212.241521 
L 85.655918 -228.65792 
L 83.592435 -250.765421 
L 81.528953 -213.704476 
L 79.465471 -299.556564 
L 77.401989 -287.172385 
z
" style="stroke: #4fa8c8; stroke-opacity: 0.2"/>
    </defs>
    <g clip-path="url(#pde5881bb93)">
     <use xlink:href="#mb87970a743" x="0" y="377.39625" style="fill: #4fa8c8; fill-opacity: 0.2; stroke: #4fa8c8; stroke-opacity: 0.2"/>
    </g>
   </g>
   <g id="matplotlib.axis_1">
    <g id="xtick_1">
     <g id="line2d_1">
      <path d="M 77.401989 339.84 
L 77.401989 7.2 
" clip-path="url(#pde5881bb93)" style="fill: none; stroke: #b0b0b0; stroke-opacity: 0.3; stroke-width: 0.8; stroke-linecap: square"/>
     </g>
     <g id="line2d_2">
      <defs>
       <path id="m868d16e368" d="M 0 0 
L 0 3.5 
" style="stroke: #000000; stroke-width: 0.8"/>
      </defs>
      <g>
       <use xlink:href="#m868d16e368" x="77.401989" y="339.84" style="stroke: #000000; stroke-width: 0.8"/>
      </g>
     </g>
     <g id="text_1">
      <!-- 0 -->
      <g transform="translate(74.220739 354.438437) scale(0.1 -0.1)">
       <defs>
        <path id="DejaVuSans-30" d="M 2034 4250 
Q 1547 4250 1301 3770 
Q 1056 3291 1056 2328 
Q 1056 1369 1301 889 
Q 1547 409 2034 409 
Q 2525 409 2770 889 
Q 3016 1369 3016 2328 
Q 3016 3291 2770 3770 
Q 2525 4250 2034 4250 
z
M 2034 4750 
Q 2819 4750 3233 4129 
Q 3647 3509 3647 2328 
Q 3647 1150 3233 529 
Q 2819 -91 2034 -91 
Q 1250 -91 836 529 
Q 422 1150 422 2328 
Q 422 3509 836 4129 
Q 1250 4750 2034 4750 
z
" transform="scale(0.015625)"/>
       </defs>
       <use xlink:href="#DejaVuSans-30"/>
      </g>
     </g>
    </g>
    <g id="xtick_2">
     <g id="line2d_3">
      <path d="M 180.576103 339.84 
L 180.576103 7.2 
" clip-path="url(#pde5881bb93)" style="fill: none; stroke: #b0b0b0; stroke-opacity: 0.3; stroke-width: 0.8; stroke-linecap: square"/>
     </g>
     <g id="line2d_4">
      <g>
       <use xlink:href="#m868d16e368" x="180.576103" y="339.84" style="stroke: #000000; stroke-width: 0.8"/>
      </g>
     </g>
     <g id="text_2">
      <!-- 50 -->
      <g transform="translate(174.213603 354.438437) scale(0.1 -0.1)">
       <defs>
        <path id="DejaVuSans-35" d="M 691 4666 
L 3169 4666 
L 3169 4134 
L 1269 4134 
L 1269 2991 
Q 1406 3038 1543 3061 
Q 1681 3084 1819 3084 
Q 2600 3084 3056 2656 
Q 3513 2228 3513 1497 
Q 3513 744 3044 326 
Q 2575 -91 1722 -91 
Q 1428 -91 1123 -41 
Q 819 9 494 109 
L 494 744 
Q 775 591 1075 516 
Q 1375 441 1709 441 
Q 2250 441 2565 725 
Q 2881 1009 2881 1497 
Q 2881 1984 2565 2268 
Q 2250 2553 1709 2553 
Q 1456 2553 1204 2497 
Q 953 2441 691 2322 
L 691 4666 
z
" transform="scale(0.015625)"/>
       </defs>
       <use xlink:href="#DejaVuSans-35"/>
       <use xlink:href="#DejaVuSans-30" transform="translate(63.623047 0)"/>
      </g>
     </g>
    </g>
    <g id="xtick_3">
     <g id="line2d_5">
      <path d="M 283.750217 339.84 
L 283.750217 7.2 
" clip-path="url(#pde5881bb93)" style="fill: none; stroke: #b0b0b0; stroke-opacity: 0.3; stroke-width: 0.8; stroke-linecap: square"/>
     </g>
     <g id="line2d_6">
      <g>
       <use xlink:href="#m868d16e368" x="283.750217" y="339.84" style="stroke: #000000; stroke-width: 0.8"/>
      </g>
     </g>
     <g id="text_3">
      <!-- 100 -->
      <g transform="translate(274.206467 354.438437) scale(0.1 -0.1)">
       <defs>
        <path id="DejaVuSans-31" d="M 794 531 
L 1825 531 
L 1825 4091 
L 703 3866 
L 703 4441 
L 1819 4666 
L 2450 4666 
L 2450 531 
L 3481 531 
L 3481 0 
L 794 0 
L 794 531 
z
" transform="scale(0.015625)"/>
       </defs>
       <use xlink:href="#DejaVuSans-31"/>
       <use xlink:href="#DejaVuSans-30" transform="translate(63.623047 0)"/>
       <use xlink:href="#DejaVuSans-30" transform="translate(127.246094 0)"/>
      </g>
     </g>
    </g>
    <g id="xtick_4">
     <g id="line2d_7">
      <path d="M 386.924331 339.84 
L 386.924331 7.2 
" clip-path="url(#pde5881bb93)" style="fill: none; stroke: #b0b0b0; stroke-opacity: 0.3; stroke-width: 0.8; stroke-linecap: square"/>
     </g>
     <g id="line2d_8">
      <g>
       <use xlink:href="#m868d16e368" x="386.924331" y="339.84" style="stroke: #000000; stroke-width: 0.8"/>
      </g>
     </g>
     <g id="text_4">
      <!-- 150 -->
      <g transform="translate(377.380581 354.438437) scale(0.1 -0.1)">
       <use xlink:href="#DejaVuSans-31"/>
       <use xlink:href="#DejaVuSans-35" transform="translate(63.623047 0)"/>
       <use xlink:href="#DejaVuSans-30" transform="translate(127.246094 0)"/>
      </g>
     </g>
    </g>
    <g id="xtick_5">
     <g id="line2d_9">
      <path d="M 490.098445 339.84 
L 490.098445 7.2 
" clip-path="url(#pde5881bb93)" style="fill: none; stroke: #b0b0b0; stroke-opacity: 0.3; stroke-width: 0.8; stroke-linecap: square"/>
     </g>
     <g id="line2d_10">
      <g>
       <use xlink:href="#m868d16e368" x="490.098445" y="339.84" style="stroke: #000000; stroke-width: 0.8"/>
      </g>
     </g>
     <g id="text_5">
      <!-- 200 -->
      <g transform="translate(480.554695 354.438437) scale(0.1 -0.1)">
       <defs>
        <path id="DejaVuSans-32" d="M 1228 531 
L 3431 531 
L 3431 0 
L 469 0 
L 469 531 
Q 828 903 1448 1529 
Q 2069 2156 2228 2338 
Q 2531 2678 2651 2914 
Q 2772 3150 2772 3378 
Q 2772 3750 2511 3984 
Q 2250 4219 1831 4219 
Q 1534 4219 1204 4116 
Q 875 4013 500 3803 
L 500 4441 
Q 881 4594 1212 4672 
Q 1544 4750 1819 4750 
Q 2544 4750 2975 4387 
Q 3406 4025 3406 3419 
Q 3406 3131 3298 2873 
Q 3191 2616 2906 2266 
Q 2828 2175 2409 1742 
Q 1991 1309 1228 531 
z
" transform="scale(0.015625)"/>
       </defs>
       <use xlink:href="#DejaVuSans-32"/>
       <use xlink:href="#DejaVuSans-30" transform="translate(63.623047 0)"/>
       <use xlink:href="#DejaVuSans-30" transform="translate(127.246094 0)"/>
      </g>
     </g>
    </g>
    <g id="xtick_6">
     <g id="line2d_11">
      <path d="M 593.272559 339.84 
L 593.272559 7.2 
" clip-path="url(#pde5881bb93)" style="fill: none; stroke: #b0b0b0; stroke-opacity: 0.3; stroke-width: 0.8; stroke-linecap: square"/>
     </g>
     <g id="line2d_12">
      <g>
       <use xlink:href="#m868d16e368" x="593.272559" y="339.84" style="stroke: #000000; stroke-width: 0.8"/>
      </g>
     </g>
     <g id="text_6">
      <!-- 250 -->
      <g transform="translate(583.728809 354.438437) scale(0.1 -0.1)">
       <use xlink:href="#DejaVuSans-32"/>
       <use xlink:href="#DejaVuSans-35" transform="translate(63.623047 0)"/>
       <use xlink:href="#DejaVuSans-30" transform="translate(127.246094 0)"/>
      </g>
     </g>
    </g>
    <g id="xtick_7">
     <g id="line2d_13">
      <path d="M 696.446673 339.84 
L 696.446673 7.2 
" clip-path="url(#pde5881bb93)" style="fill: none; stroke: #b0b0b0; stroke-opacity: 0.3; stroke-width: 0.8; stroke-linecap: square"/>
     </g>
     <g id="line2d_14">
      <g>
       <use xlink:href="#m868d16e368" x="696.446673" y="339.84" style="stroke: #000000; stroke-width: 0.8"/>
      </g>
     </g>
     <g id="text_7">
      <!-- 300 -->
      <g transform="translate(686.902923 354.438437) scale(0.1 -0.1)">
       <defs>
        <path id="DejaVuSans-33" d="M 2597 2516 
Q 3050 2419 3304 2112 
Q 3559 1806 3559 1356 
Q 3559 666 3084 287 
Q 2609 -91 1734 -91 
Q 1441 -91 1130 -33 
Q 819 25 488 141 
L 488 750 
Q 750 597 1062 519 
Q 1375 441 1716 441 
Q 2309 441 2620 675 
Q 2931 909 2931 1356 
Q 2931 1769 2642 2001 
Q 2353 2234 1838 2234 
L 1294 2234 
L 1294 2753 
L 1863 2753 
Q 2328 2753 2575 2939 
Q 2822 3125 2822 3475 
Q 2822 3834 2567 4026 
Q 2313 4219 1838 4219 
Q 1578 4219 1281 4162 
Q 984 4106 628 3988 
L 628 4550 
Q 988 4650 1302 4700 
Q 1616 4750 1894 4750 
Q 2613 4750 3031 4423 
Q 3450 4097 3450 3541 
Q 3450 3153 3228 2886 
Q 3006 2619 2597 2516 
z
" transform="scale(0.015625)"/>
       </defs>
       <use xlink:href="#DejaVuSans-33"/>
       <use xlink:href="#DejaVuSans-30" transform="translate(63.623047 0)"/>
       <use xlink:href="#DejaVuSans-30" transform="translate(127.246094 0)"/>
      </g>
     </g>
    </g>
    <g id="text_8">
     <!-- Time (sessions) -->
     <g transform="translate(342.928906 368.116562) scale(0.1 -0.1)">
      <defs>
       <path id="DejaVuSans-54" d="M -19 4666 
L 3928 4666 
L 3928 4134 
L 2272 4134 
L 2272 0 
L 1638 0 
L 1638 4134 
L -19 4134 
L -19 4666 
z
" transform="scale(0.015625)"/>
       <path id="DejaVuSans-69" d="M 603 3500 
L 1178 3500 
L 1178 0 
L 603 0 
L 603 3500 
z
M 603 4863 
L 1178 4863 
L 1178 4134 
L 603 4134 
L 603 4863 
z
" transform="scale(0.015625)"/>
       <path id="DejaVuSans-6d" d="M 3328 2828 
Q 3544 3216 3844 3400 
Q 4144 3584 4550 3584 
Q 5097 3584 5394 3201 
Q 5691 2819 5691 2113 
L 5691 0 
L 5113 0 
L 5113 2094 
Q 5113 2597 4934 2840 
Q 4756 3084 4391 3084 
Q 3944 3084 3684 2787 
Q 3425 2491 3425 1978 
L 3425 0 
L 2847 0 
L 2847 2094 
Q 2847 2600 2669 2842 
Q 2491 3084 2119 3084 
Q 1678 3084 1418 2786 
Q 1159 2488 1159 1978 
L 1159 0 
L 581 0 
L 581 3500 
L 1159 3500 
L 1159 2956 
Q 1356 3278 1631 3431 
Q 1906 3584 2284 3584 
Q 2666 3584 2933 3390 
Q 3200 3197 3328 2828 
z
" transform="scale(0.015625)"/>
       <path id="DejaVuSans-65" d="M 3597 1894 
L 3597 1613 
L 953 1613 
Q 991 1019 1311 708 
Q 1631 397 2203 397 
Q 2534 397 2845 478 
Q 3156 559 3463 722 
L 3463 178 
Q 3153 47 2828 -22 
Q 2503 -91 2169 -91 
Q 1331 -91 842 396 
Q 353 884 353 1716 
Q 353 2575 817 3079 
Q 1281 3584 2069 3584 
Q 2775 3584 3186 3129 
Q 3597 2675 3597 1894 
z
M 3022 2063 
Q 3016 2534 2758 2815 
Q 2500 3097 2075 3097 
Q 1594 3097 1305 2825 
Q 1016 2553 972 2059 
L 3022 2063 
z
" transform="scale(0.015625)"/>
       <path id="DejaVuSans-20" transform="scale(0.015625)"/>
       <path id="DejaVuSans-28" d="M 1984 4856 
Q 1566 4138 1362 3434 
Q 1159 2731 1159 2009 
Q 1159 1288 1364 580 
Q 1569 -128 1984 -844 
L 1484 -844 
Q 1016 -109 783 600 
Q 550 1309 550 2009 
Q 550 2706 781 3412 
Q 1013 4119 1484 4856 
L 1984 4856 
z
" transform="scale(0.015625)"/>
       <path id="DejaVuSans-73" d="M 2834 3397 
L 2834 2853 
Q 2591 2978 2328 3040 
Q 2066 3103 1784 3103 
Q 1356 3103 1142 2972 
Q 928 2841 928 2578 
Q 928 2378 1081 2264 
Q 1234 2150 1697 2047 
L 1894 2003 
Q 2506 1872 2764 1633 
Q 3022 1394 3022 966 
Q 3022 478 2636 193 
Q 2250 -91 1575 -91 
Q 1294 -91 989 -36 
Q 684 19 347 128 
L 347 722 
Q 666 556 975 473 
Q 1284 391 1588 391 
Q 1994 391 2212 530 
Q 2431 669 2431 922 
Q 2431 1156 2273 1281 
Q 2116 1406 1581 1522 
L 1381 1569 
Q 847 1681 609 1914 
Q 372 2147 372 2553 
Q 372 3047 722 3315 
Q 1072 3584 1716 3584 
Q 2034 3584 2315 3537 
Q 2597 3491 2834 3397 
z
" transform="scale(0.015625)"/>
       <path id="DejaVuSans-6f" d="M 1959 3097 
Q 1497 3097 1228 2736 
Q 959 2375 959 1747 
Q 959 1119 1226 758 
Q 1494 397 1959 397 
Q 2419 397 2687 759 
Q 2956 1122 2956 1747 
Q 2956 2369 2687 2733 
Q 2419 3097 1959 3097 
z
M 1959 3584 
Q 2709 3584 3137 3096 
Q 3566 2609 3566 1747 
Q 3566 888 3137 398 
Q 2709 -91 1959 -91 
Q 1206 -91 779 398 
Q 353 888 353 1747 
Q 353 2609 779 3096 
Q 1206 3584 1959 3584 
z
" transform="scale(0.015625)"/>
       <path id="DejaVuSans-6e" d="M 3513 2113 
L 3513 0 
L 2938 0 
L 2938 2094 
Q 2938 2591 2744 2837 
Q 2550 3084 2163 3084 
Q 1697 3084 1428 2787 
Q 1159 2491 1159 1978 
L 1159 0 
L 581 0 
L 581 3500 
L 1159 3500 
L 1159 2956 
Q 1366 3272 1645 3428 
Q 1925 3584 2291 3584 
Q 2894 3584 3203 3211 
Q 3513 2838 3513 2113 
z
" transform="scale(0.015625)"/>
       <path id="DejaVuSans-29" d="M 513 4856 
L 1013 4856 
Q 1481 4119 1714 3412 
Q 1947 2706 1947 2009 
Q 1947 1309 1714 600 
Q 1481 -109 1013 -844 
L 513 -844 
Q 928 -128 1133 580 
Q 1338 1288 1338 2009 
Q 1338 2731 1133 3434 
Q 928 4138 513 4856 
z
" transform="scale(0.015625)"/>
      </defs>
      <use xlink:href="#DejaVuSans-54"/>
      <use xlink:href="#DejaVuSans-69" transform="translate(57.958984 0)"/>
      <use xlink:href="#DejaVuSans-6d" transform="translate(85.742188 0)"/>
      <use xlink:href="#DejaVuSans-65" transform="translate(183.154297 0)"/>
      <use xlink:href="#DejaVuSans-20" transform="translate(244.677734 0)"/>
      <use xlink:href="#DejaVuSans-28" transform="translate(276.464844 0)"/>
      <use xlink:href="#DejaVuSans-73" transform="translate(315.478516 0)"/>
      <use xlink:href="#DejaVuSans-65" transform="translate(367.578125 0)"/>
      <use xlink:href="#DejaVuSans-73" transform="translate(429.101562 0)"/>
      <use xlink:href="#DejaVuSans-73" transform="translate(481.201172 0)"/>
      <use xlink:href="#DejaVuSans-69" transform="translate(533.300781 0)"/>
      <use xlink:href="#DejaVuSans-6f" transform="translate(561.083984 0)"/>
      <use xlink:href="#DejaVuSans-6e" transform="translate(622.265625 0)"/>
      <use xlink:href="#DejaVuSans-73" transform="translate(685.644531 0)"/>
      <use xlink:href="#DejaVuSans-29" transform="translate(737.744141 0)"/>
     </g>
    </g>
   </g>
   <g id="matplotlib.axis_2">
    <g id="ytick_1">
     <g id="line2d_15">
      <path d="M 46.965625 339.53021 
L 716.565625 339.53021 
" clip-path="url(#pde5881bb93)" style="fill: none; stroke: #b0b0b0; stroke-opacity: 0.3; stroke-width: 0.8; stroke-linecap: square"/>
     </g>
     <g id="line2d_16">
      <defs>
       <path id="m04753480bc" d="M 0 0 
L -3.5 0 
" style="stroke: #000000; stroke-width: 0.8"/>
      </defs>
      <g>
       <use xlink:href="#m04753480bc" x="46.965625" y="339.53021" style="stroke: #000000; stroke-width: 0.8"/>
      </g>
     </g>
     <g id="text_9">
      <!-- 120 -->
      <g transform="translate(20.878125 343.329429) scale(0.1 -0.1)">
       <use xlink:href="#DejaVuSans-31"/>
       <use xlink:href="#DejaVuSans-32" transform="translate(63.623047 0)"/>
       <use xlink:href="#DejaVuSans-30" transform="translate(127.246094 0)"/>
      </g>
     </g>
    </g>
    <g id="ytick_2">
     <g id="line2d_17">
      <path d="M 46.965625 286.262377 
L 716.565625 286.262377 
" clip-path="url(#pde5881bb93)" style="fill: none; stroke: #b0b0b0; stroke-opacity: 0.3; stroke-width: 0.8; stroke-linecap: square"/>
     </g>
     <g id="line2d_18">
      <g>
       <use xlink:href="#m04753480bc" x="46.965625" y="286.262377" style="stroke: #000000; stroke-width: 0.8"/>
      </g>
     </g>
     <g id="text_10">
      <!-- 130 -->
      <g transform="translate(20.878125 290.061596) scale(0.1 -0.1)">
       <use xlink:href="#DejaVuSans-31"/>
       <use xlink:href="#DejaVuSans-33" transform="translate(63.623047 0)"/>
       <use xlink:href="#DejaVuSans-30" transform="translate(127.246094 0)"/>
      </g>
     </g>
    </g>
    <g id="ytick_3">
     <g id="line2d_19">
      <path d="M 46.965625 232.994543 
L 716.565625 232.994543 
" clip-path="url(#pde5881bb93)" style="fill: none; stroke: #b0b0b0; stroke-opacity: 0.3; stroke-width: 0.8; stroke-linecap: square"/>
     </g>
     <g id="line2d_20">
      <g>
       <use xlink:href="#m04753480bc" x="46.965625" y="232.994543" style="stroke: #000000; stroke-width: 0.8"/>
      </g>
     </g>
     <g id="text_11">
      <!-- 140 -->
      <g transform="translate(20.878125 236.793762) scale(0.1 -0.1)">
       <defs>
        <path id="DejaVuSans-34" d="M 2419 4116 
L 825 1625 
L 2419 1625 
L 2419 4116 
z
M 2253 4666 
L 3047 4666 
L 3047 1625 
L 3713 1625 
L 3713 1100 
L 3047 1100 
L 3047 0 
L 2419 0 
L 2419 1100 
L 313 1100 
L 313 1709 
L 2253 4666 
z
" transform="scale(0.015625)"/>
       </defs>
       <use xlink:href="#DejaVuSans-31"/>
       <use xlink:href="#DejaVuSans-34" transform="translate(63.623047 0)"/>
       <use xlink:href="#DejaVuSans-30" transform="translate(127.246094 0)"/>
      </g>
     </g>
    </g>
    <g id="ytick_4">
     <g id="line2d_21">
      <path d="M 46.965625 179.72671 
L 716.565625 179.72671 
" clip-path="url(#pde5881bb93)" style="fill: none; stroke: #b0b0b0; stroke-opacity: 0.3; stroke-width: 0.8; stroke-linecap: square"/>
     </g>
     <g id="line2d_22">
      <g>
       <use xlink:href="#m04753480bc" x="46.965625" y="179.72671" style="stroke: #000000; stroke-width: 0.8"/>
      </g>
     </g>
     <g id="text_12">
      <!-- 150 -->
      <g transform="translate(20.878125 183.525929) scale(0.1 -0.1)">
       <use xlink:href="#DejaVuSans-31"/>
       <use xlink:href="#DejaVuSans-35" transform="translate(63.623047 0)"/>
       <use xlink:href="#DejaVuSans-30" transform="translate(127.246094 0)"/>
      </g>
     </g>
    </g>
    <g id="ytick_5">
     <g id="line2d_23">
      <path d="M 46.965625 126.458876 
L 716.565625 126.458876 
" clip-path="url(#pde5881bb93)" style="fill: none; stroke: #b0b0b0; stroke-opacity: 0.3; stroke-width: 0.8; stroke-linecap: square"/>
     </g>
     <g id="line2d_24">
      <g>
       <use xlink:href="#m04753480bc" x="46.965625" y="126.458876" style="stroke: #000000; stroke-width: 0.8"/>
      </g>
     </g>
     <g id="text_13">
      <!-- 160 -->
      <g transform="translate(20.878125 130.258095) scale(0.1 -0.1)">
       <defs>
        <path id="DejaVuSans-36" d="M 2113 2584 
Q 1688 2584 1439 2293 
Q 1191 2003 1191 1497 
Q 1191 994 1439 701 
Q 1688 409 2113 409 
Q 2538 409 2786 701 
Q 3034 994 3034 1497 
Q 3034 2003 2786 2293 
Q 2538 2584 2113 2584 
z
M 3366 4563 
L 3366 3988 
Q 3128 4100 2886 4159 
Q 2644 4219 2406 4219 
Q 1781 4219 1451 3797 
Q 1122 3375 1075 2522 
Q 1259 2794 1537 2939 
Q 1816 3084 2150 3084 
Q 2853 3084 3261 2657 
Q 3669 2231 3669 1497 
Q 3669 778 3244 343 
Q 2819 -91 2113 -91 
Q 1303 -91 875 529 
Q 447 1150 447 2328 
Q 447 3434 972 4092 
Q 1497 4750 2381 4750 
Q 2619 4750 2861 4703 
Q 3103 4656 3366 4563 
z
" transform="scale(0.015625)"/>
       </defs>
       <use xlink:href="#DejaVuSans-31"/>
       <use xlink:href="#DejaVuSans-36" transform="translate(63.623047 0)"/>
       <use xlink:href="#DejaVuSans-30" transform="translate(127.246094 0)"/>
      </g>
     </g>
    </g>
    <g id="ytick_6">
     <g id="line2d_25">
      <path d="M 46.965625 73.191043 
L 716.565625 73.191043 
" clip-path="url(#pde5881bb93)" style="fill: none; stroke: #b0b0b0; stroke-opacity: 0.3; stroke-width: 0.8; stroke-linecap: square"/>
     </g>
     <g id="line2d_26">
      <g>
       <use xlink:href="#m04753480bc" x="46.965625" y="73.191043" style="stroke: #000000; stroke-width: 0.8"/>
      </g>
     </g>
     <g id="text_14">
      <!-- 170 -->
      <g transform="translate(20.878125 76.990262) scale(0.1 -0.1)">
       <defs>
        <path id="DejaVuSans-37" d="M 525 4666 
L 3525 4666 
L 3525 4397 
L 1831 0 
L 1172 0 
L 2766 4134 
L 525 4134 
L 525 4666 
z
" transform="scale(0.015625)"/>
       </defs>
       <use xlink:href="#DejaVuSans-31"/>
       <use xlink:href="#DejaVuSans-37" transform="translate(63.623047 0)"/>
       <use xlink:href="#DejaVuSans-30" transform="translate(127.246094 0)"/>
      </g>
     </g>
    </g>
    <g id="ytick_7">
     <g id="line2d_27">
      <path d="M 46.965625 19.923209 
L 716.565625 19.923209 
" clip-path="url(#pde5881bb93)" style="fill: none; stroke: #b0b0b0; stroke-opacity: 0.3; stroke-width: 0.8; stroke-linecap: square"/>
     </g>
     <g id="line2d_28">
      <g>
       <use xlink:href="#m04753480bc" x="46.965625" y="19.923209" style="stroke: #000000; stroke-width: 0.8"/>
      </g>
     </g>
     <g id="text_15">
      <!-- 180 -->
      <g transform="translate(20.878125 23.722428) scale(0.1 -0.1)">
       <defs>
        <path id="DejaVuSans-38" d="M 2034 2216 
Q 1584 2216 1326 1975 
Q 1069 1734 1069 1313 
Q 1069 891 1326 650 
Q 1584 409 2034 409 
Q 2484 409 2743 651 
Q 3003 894 3003 1313 
Q 3003 1734 2745 1975 
Q 2488 2216 2034 2216 
z
M 1403 2484 
Q 997 2584 770 2862 
Q 544 3141 544 3541 
Q 544 4100 942 4425 
Q 1341 4750 2034 4750 
Q 2731 4750 3128 4425 
Q 3525 4100 3525 3541 
Q 3525 3141 3298 2862 
Q 3072 2584 2669 2484 
Q 3125 2378 3379 2068 
Q 3634 1759 3634 1313 
Q 3634 634 3220 271 
Q 2806 -91 2034 -91 
Q 1263 -91 848 271 
Q 434 634 434 1313 
Q 434 1759 690 2068 
Q 947 2378 1403 2484 
z
M 1172 3481 
Q 1172 3119 1398 2916 
Q 1625 2713 2034 2713 
Q 2441 2713 2670 2916 
Q 2900 3119 2900 3481 
Q 2900 3844 2670 4047 
Q 2441 4250 2034 4250 
Q 1625 4250 1398 4047 
Q 1172 3844 1172 3481 
z
" transform="scale(0.015625)"/>
       </defs>
       <use xlink:href="#DejaVuSans-31"/>
       <use xlink:href="#DejaVuSans-38" transform="translate(63.623047 0)"/>
       <use xlink:href="#DejaVuSans-30" transform="translate(127.246094 0)"/>
      </g>
     </g>
    </g>
    <g id="text_16">
     <!-- Heart Rate -->
     <g transform="translate(14.798438 200.487969) rotate(-90) scale(0.1 -0.1)">
      <defs>
       <path id="DejaVuSans-48" d="M 628 4666 
L 1259 4666 
L 1259 2753 
L 3553 2753 
L 3553 4666 
L 4184 4666 
L 4184 0 
L 3553 0 
L 3553 2222 
L 1259 2222 
L 1259 0 
L 628 0 
L 628 4666 
z
" transform="scale(0.015625)"/>
       <path id="DejaVuSans-61" d="M 2194 1759 
Q 1497 1759 1228 1600 
Q 959 1441 959 1056 
Q 959 750 1161 570 
Q 1363 391 1709 391 
Q 2188 391 2477 730 
Q 2766 1069 2766 1631 
L 2766 1759 
L 2194 1759 
z
M 3341 1997 
L 3341 0 
L 2766 0 
L 2766 531 
Q 2569 213 2275 61 
Q 1981 -91 1556 -91 
Q 1019 -91 701 211 
Q 384 513 384 1019 
Q 384 1609 779 1909 
Q 1175 2209 1959 2209 
L 2766 2209 
L 2766 2266 
Q 2766 2663 2505 2880 
Q 2244 3097 1772 3097 
Q 1472 3097 1187 3025 
Q 903 2953 641 2809 
L 641 3341 
Q 956 3463 1253 3523 
Q 1550 3584 1831 3584 
Q 2591 3584 2966 3190 
Q 3341 2797 3341 1997 
z
" transform="scale(0.015625)"/>
       <path id="DejaVuSans-72" d="M 2631 2963 
Q 2534 3019 2420 3045 
Q 2306 3072 2169 3072 
Q 1681 3072 1420 2755 
Q 1159 2438 1159 1844 
L 1159 0 
L 581 0 
L 581 3500 
L 1159 3500 
L 1159 2956 
Q 1341 3275 1631 3429 
Q 1922 3584 2338 3584 
Q 2397 3584 2469 3576 
Q 2541 3569 2628 3553 
L 2631 2963 
z
" transform="scale(0.015625)"/>
       <path id="DejaVuSans-74" d="M 1172 4494 
L 1172 3500 
L 2356 3500 
L 2356 3053 
L 1172 3053 
L 1172 1153 
Q 1172 725 1289 603 
Q 1406 481 1766 481 
L 2356 481 
L 2356 0 
L 1766 0 
Q 1100 0 847 248 
Q 594 497 594 1153 
L 594 3053 
L 172 3053 
L 172 3500 
L 594 3500 
L 594 4494 
L 1172 4494 
z
" transform="scale(0.015625)"/>
       <path id="DejaVuSans-52" d="M 2841 2188 
Q 3044 2119 3236 1894 
Q 3428 1669 3622 1275 
L 4263 0 
L 3584 0 
L 2988 1197 
Q 2756 1666 2539 1819 
Q 2322 1972 1947 1972 
L 1259 1972 
L 1259 0 
L 628 0 
L 628 4666 
L 2053 4666 
Q 2853 4666 3247 4331 
Q 3641 3997 3641 3322 
Q 3641 2881 3436 2590 
Q 3231 2300 2841 2188 
z
M 1259 4147 
L 1259 2491 
L 2053 2491 
Q 2509 2491 2742 2702 
Q 2975 2913 2975 3322 
Q 2975 3731 2742 3939 
Q 2509 4147 2053 4147 
L 1259 4147 
z
" transform="scale(0.015625)"/>
      </defs>
      <use xlink:href="#DejaVuSans-48"/>
      <use xlink:href="#DejaVuSans-65" transform="translate(75.195312 0)"/>
      <use xlink:href="#DejaVuSans-61" transform="translate(136.71875 0)"/>
      <use xlink:href="#DejaVuSans-72" transform="translate(197.998047 0)"/>
      <use xlink:href="#DejaVuSans-74" transform="translate(239.111328 0)"/>
      <use xlink:href="#DejaVuSans-20" transform="translate(278.320312 0)"/>
      <use xlink:href="#DejaVuSans-52" transform="translate(310.107422 0)"/>
      <use xlink:href="#DejaVuSans-61" transform="translate(377.339844 0)"/>
      <use xlink:href="#DejaVuSans-74" transform="translate(438.619141 0)"/>
      <use xlink:href="#DejaVuSans-65" transform="translate(477.828125 0)"/>
     </g>
    </g>
   </g>
   <g id="line2d_29">
    <path d="M 77.401989 123.103003 
L 79.465471 111.064472 
L 81.528953 253.609195 
L 83.592435 143.451315 
L 85.655918 231.875919 
L 87.7194 247.270323 
L 89.782882 180.792067 
L 91.846365 127.684036 
L 93.909847 87.999501 
L 95.973329 135.301337 
L 98.036811 92.047856 
L 100.100294 163.053878 
L 102.163776 136.579765 
L 104.227258 155.063703 
L 106.290741 174.772801 
L 108.354223 188.888777 
L 110.417705 163.586556 
L 112.481187 158.259773 
L 114.54467 225.164172 
L 116.608152 219.837388 
L 118.671634 179.140764 
L 120.735117 193.096936 
L 124.862081 126.458876 
L 126.925563 120.599415 
L 128.989046 178.874424 
L 131.052528 145.954903 
L 133.11601 223.885744 
L 135.179492 199.062933 
L 137.242975 274.38365 
L 139.306457 207.585787 
L 141.369939 135.567676 
L 143.433422 216.321711 
L 145.496904 198.849862 
L 147.560386 157.993434 
L 149.623868 121.291896 
L 151.687351 147.393135 
L 153.750833 149.683652 
L 155.814315 116.764131 
L 157.877798 109.999116 
L 159.94128 115.272631 
L 162.004762 99.611888 
L 164.068244 242.849093 
L 166.131727 280.509451 
L 168.195209 195.493989 
L 170.258691 168.433929 
L 172.322174 127.897108 
L 174.385656 162.148325 
L 176.449138 269.376474 
L 178.51262 258.935978 
L 180.576103 213.125641 
L 182.639585 218.931835 
L 184.703067 149.630384 
L 186.766549 222.926923 
L 188.830032 239.653023 
L 190.893514 164.598645 
L 192.956996 124.860841 
L 195.020479 112.928847 
L 197.083961 92.101124 
L 199.147443 129.282072 
L 201.210925 139.829103 
L 203.274408 224.631493 
L 205.33789 223.885744 
L 207.401372 176.477372 
L 209.464855 178.98096 
L 211.528337 166.463019 
L 213.591819 132.691213 
L 215.655301 140.947727 
L 217.718784 126.61868 
L 219.782266 126.405608 
L 221.845748 180.365924 
L 223.909231 170.830982 
L 225.972713 147.339867 
L 228.036195 190.593348 
L 230.099677 190.753151 
L 232.16316 180.845334 
L 234.226642 204.389717 
L 236.290124 196.293006 
L 238.353607 149.630384 
L 240.417089 124.434699 
L 242.480571 148.298688 
L 244.544053 165.397663 
L 246.607536 117.456612 
L 248.671018 162.361396 
L 250.7345 125.286984 
L 252.797982 210.355714 
L 254.861465 168.593733 
L 256.924947 180.259388 
L 258.988429 317.690399 
L 261.051912 217.280532 
L 263.115394 212.539695 
L 265.178876 224.578226 
L 267.242358 176.211033 
L 269.305841 193.629614 
L 271.369323 129.388607 
L 273.432805 142.758833 
L 275.496288 116.764131 
L 277.55977 131.625856 
L 279.623252 242.209879 
L 281.686734 195.973399 
L 283.750217 122.250717 
L 285.813699 107.708599 
L 287.877181 98.546532 
L 289.940664 95.297194 
L 292.004146 262.504923 
L 294.067628 189.634527 
L 296.13111 186.331921 
L 298.194593 140.255245 
L 300.258075 99.718424 
L 302.321557 121.291896 
L 304.385039 131.572588 
L 306.448522 133.383695 
L 308.512004 107.761867 
L 310.575486 103.926583 
L 312.638969 152.240508 
L 314.702451 152.613383 
L 316.765933 179.300567 
L 318.829415 162.041789 
L 320.892898 124.274895 
L 322.95638 173.014963 
L 325.019862 203.217824 
L 327.083345 92.793606 
L 329.146827 107.282456 
L 331.210309 114.793221 
L 333.273791 116.444524 
L 335.337274 80.64854 
L 337.400756 120.066736 
L 339.464238 119.054647 
L 341.527721 120.865754 
L 343.591203 100.783781 
L 345.654685 117.669684 
L 347.718167 155.756185 
L 349.78165 164.758449 
L 351.845132 212.91257 
L 353.908614 161.242772 
L 355.972096 184.89369 
L 358.035579 175.731622 
L 360.099061 232.568401 
L 362.162543 213.391981 
L 364.226026 185.745975 
L 366.289508 190.806419 
L 368.35299 144.783011 
L 370.416472 125.819662 
L 372.479955 122.996467 
L 374.543437 60.193691 
L 376.606919 139.988906 
L 378.670402 105.844225 
L 380.733884 110.478526 
L 382.797366 157.673827 
L 384.860848 163.74636 
L 386.924331 110.425258 
L 388.987813 109.359902 
L 391.051295 155.276774 
L 393.114778 164.172502 
L 395.17826 143.877458 
L 397.241742 133.863105 
L 399.305224 133.01082 
L 401.368707 115.645506 
L 403.432189 205.135466 
L 405.495671 213.605052 
L 407.559154 199.38254 
L 409.622636 139.136621 
L 411.686118 198.15738 
L 413.7496 185.639439 
L 415.813083 188.302831 
L 417.876565 175.944694 
L 422.003529 142.279423 
L 424.067012 118.575237 
L 426.130494 181.750888 
L 428.193976 123.369342 
L 430.257459 148.724831 
L 432.320941 145.688564 
L 434.384423 188.302831 
L 436.447905 209.290357 
L 438.511388 167.528376 
L 440.57487 116.710863 
L 442.638352 124.008556 
L 444.701835 152.293776 
L 446.765317 214.190998 
L 448.828799 221.648495 
L 450.892281 126.831751 
L 452.955764 81.074682 
L 455.019246 112.769043 
L 457.082728 96.309283 
L 459.146211 97.481175 
L 461.209693 70.048241 
L 463.273175 123.42261 
L 465.336657 88.106036 
L 467.40014 98.972674 
L 469.463622 162.201593 
L 471.527104 115.219363 
L 473.590586 142.59903 
L 475.654069 145.848368 
L 477.717551 205.721413 
L 479.781033 179.034228 
L 481.844516 168.274126 
L 483.907998 128.269983 
L 485.97148 200.234826 
L 488.034962 128.749393 
L 490.098445 121.132093 
L 492.161927 87.147215 
L 494.225409 117.243541 
L 496.288892 189.687795 
L 498.352374 182.816244 
L 500.415856 196.93222 
L 502.479338 213.445248 
L 504.542821 179.194031 
L 506.606303 263.303941 
L 508.669785 195.973399 
L 510.733268 265.168315 
L 512.79675 145.7951 
L 514.860232 106.110564 
L 516.923714 115.432435 
L 518.987197 164.545377 
L 521.050679 106.589974 
L 523.114161 95.190658 
L 525.177643 158.259773 
L 527.241126 136.100354 
L 529.304608 256.112783 
L 531.36809 126.778483 
L 533.431573 272.359472 
L 535.495055 88.585447 
L 537.558537 78.571094 
L 539.622019 287.16793 
L 541.685502 193.150204 
L 543.748984 222.394244 
L 545.812466 111.703686 
L 547.875949 86.667805 
L 549.939431 157.567291 
L 552.002913 129.81475 
L 554.066395 107.92167 
L 556.129878 72.658364 
L 558.19336 122.463789 
L 560.256842 148.458492 
L 562.320325 121.078825 
L 564.383807 87.733161 
L 566.447289 218.505693 
L 568.510771 113.674596 
L 570.574254 203.484164 
L 572.637736 182.390102 
L 574.701218 166.249948 
L 576.764701 112.982114 
L 578.828183 197.944309 
L 580.891665 136.6863 
L 582.955147 179.034228 
L 585.01863 141.214066 
L 587.082112 205.934484 
L 589.145594 148.192152 
L 591.209076 162.894074 
L 593.272559 138.284335 
L 595.336041 129.441875 
L 597.399523 128.483054 
L 599.463006 144.729743 
L 601.526488 162.414664 
L 603.58997 163.00061 
L 605.653452 217.706675 
L 607.716935 199.435808 
L 609.780417 140.894459 
L 611.843899 166.835894 
L 615.970864 149.523848 
L 618.034346 136.633033 
L 620.097828 145.635296 
L 622.161311 120.120004 
L 624.224793 175.518551 
L 626.288275 162.25486 
L 628.351758 166.889162 
L 630.41524 112.715775 
L 632.478722 168.327393 
L 634.542204 107.229188 
L 636.605687 105.95076 
L 638.669169 194.854775 
L 640.732651 128.32325 
L 642.796133 160.710093 
L 644.859616 78.624362 
L 646.923098 142.066352 
L 648.98658 121.025557 
L 651.050063 166.090144 
L 653.113545 119.214451 
L 655.177027 139.136621 
L 657.240509 137.645121 
L 659.303992 163.639824 
L 661.367474 173.760712 
L 663.430956 202.791682 
L 665.494439 168.753536 
L 667.557921 247.909537 
L 669.621403 289.085572 
L 671.684885 206.999841 
L 673.748368 139.030085 
L 675.81185 132.26507 
L 677.875332 176.583908 
L 679.938815 169.499286 
L 682.002297 181.484548 
L 684.065779 198.690059 
L 686.129261 196.665881 
L 686.129261 196.665881 
" clip-path="url(#pde5881bb93)" style="fill: none; stroke: #000000; stroke-width: 1.5; stroke-linecap: square"/>
   </g>
   <g id="line2d_30">
    <path d="M 77.401989 196.759532 
L 79.465471 184.364547 
L 81.528953 270.201959 
L 83.592435 233.127203 
L 85.655918 255.22056 
L 87.7194 271.622314 
L 89.782882 239.953889 
L 91.846365 188.811065 
L 93.909847 163.783357 
L 95.973329 201.920829 
L 98.036811 168.310462 
L 100.100294 207.41876 
L 102.163776 208.598328 
L 104.227258 203.568989 
L 106.290741 230.747456 
L 108.354223 233.908411 
L 110.417705 220.579932 
L 112.481187 214.300093 
L 114.54467 247.236426 
L 116.608152 269.512339 
L 118.671634 259.438342 
L 120.735117 214.585274 
L 122.798599 223.389026 
L 124.862081 207.945929 
L 126.925563 207.699513 
L 128.989046 208.034606 
L 131.052528 208.859348 
L 133.11601 223.631643 
L 135.179492 233.422151 
L 137.242975 280.727713 
L 139.306457 264.671726 
L 141.369939 245.802738 
L 143.433422 274.353119 
L 145.496904 281.351363 
L 147.560386 217.239024 
L 149.623868 236.404965 
L 151.687351 207.402371 
L 153.750833 249.921612 
L 155.814315 206.988934 
L 157.877798 215.75498 
L 159.94128 206.85217 
L 162.004762 222.80601 
L 164.068244 259.111342 
L 166.131727 290.239756 
L 168.195209 263.603218 
L 170.258691 252.654479 
L 172.322174 223.922896 
L 174.385656 217.875837 
L 176.449138 259.123642 
L 178.51262 260.234567 
L 180.576103 233.413892 
L 182.639585 237.674979 
L 184.703067 225.275562 
L 186.766549 251.348714 
L 188.830032 231.024953 
L 190.893514 187.328931 
L 192.956996 182.777088 
L 195.020479 177.786625 
L 197.083961 176.714901 
L 199.147443 183.890964 
L 201.210925 198.20079 
L 203.274408 246.740079 
L 205.33789 245.964321 
L 207.401372 244.29831 
L 209.464855 236.032897 
L 211.528337 198.794969 
L 213.591819 187.152476 
L 215.655301 202.849452 
L 217.718784 191.470235 
L 219.782266 190.958557 
L 221.845748 208.97287 
L 223.909231 198.008943 
L 225.972713 194.947982 
L 228.036195 227.399869 
L 230.099677 232.910731 
L 232.16316 225.105006 
L 234.226642 256.886642 
L 236.290124 257.231244 
L 238.353607 243.733753 
L 240.417089 228.352413 
L 242.480571 246.476748 
L 244.544053 251.275409 
L 246.607536 240.997071 
L 248.671018 220.878129 
L 250.7345 206.174236 
L 252.797982 247.15808 
L 254.861465 238.893001 
L 256.924947 247.766706 
L 258.988429 278.622616 
L 261.051912 256.122976 
L 263.115394 255.721428 
L 265.178876 261.513829 
L 267.242358 234.11026 
L 269.305841 220.390152 
L 273.432805 232.191396 
L 275.496288 205.069435 
L 277.55977 242.195368 
L 279.623252 283.733234 
L 281.686734 264.975574 
L 283.750217 139.664507 
L 285.813699 178.719316 
L 287.877181 146.114647 
L 289.940664 166.999022 
L 292.004146 279.042147 
L 294.067628 231.723223 
L 296.13111 235.415017 
L 298.194593 215.629071 
L 300.258075 244.062621 
L 302.321557 232.641031 
L 304.385039 218.938376 
L 306.448522 186.994729 
L 308.512004 179.857414 
L 310.575486 176.934702 
L 312.638969 216.247946 
L 314.702451 231.745277 
L 316.765933 209.223087 
L 318.829415 219.749603 
L 320.892898 178.907499 
L 322.95638 263.284775 
L 325.019862 270.423516 
L 327.083345 214.661984 
L 329.146827 225.136776 
L 331.210309 231.580837 
L 333.273791 212.807868 
L 335.337274 204.312201 
L 337.400756 223.796647 
L 339.464238 217.304025 
L 341.527721 219.302878 
L 343.591203 216.378423 
L 345.654685 253.037029 
L 347.718167 195.552752 
L 349.78165 208.29893 
L 351.845132 218.238482 
L 353.908614 220.714553 
L 355.972096 226.266527 
L 358.035579 230.154504 
L 360.099061 259.797457 
L 362.162543 250.07821 
L 364.226026 206.350986 
L 366.289508 216.709117 
L 368.35299 189.64352 
L 370.416472 187.461299 
L 372.479955 168.615192 
L 374.543437 147.521521 
L 376.606919 185.722699 
L 378.670402 181.930287 
L 380.733884 198.643269 
L 382.797366 189.752579 
L 384.860848 185.335961 
L 386.924331 150.799619 
L 388.987813 146.825841 
L 391.051295 177.791517 
L 393.114778 202.705745 
L 395.17826 179.798012 
L 397.241742 154.302434 
L 399.305224 193.280641 
L 401.368707 175.286979 
L 403.432189 203.266364 
L 405.495671 228.002057 
L 407.559154 238.455924 
L 409.622636 204.508911 
L 411.686118 209.118381 
L 413.7496 225.61208 
L 415.813083 230.937164 
L 417.876565 222.235969 
L 419.940047 204.956634 
L 422.003529 226.869545 
L 424.067012 230.305295 
L 426.130494 247.068708 
L 428.193976 213.39338 
L 430.257459 218.364638 
L 432.320941 224.844231 
L 434.384423 270.574749 
L 436.447905 268.803969 
L 438.511388 259.599159 
L 440.57487 177.674852 
L 442.638352 167.219856 
L 444.701835 191.306127 
L 446.765317 238.226715 
L 448.828799 245.057816 
L 450.892281 143.30804 
L 452.955764 143.892744 
L 455.019246 177.436735 
L 457.082728 145.877826 
L 459.146211 133.945968 
L 461.209693 142.07047 
L 463.273175 155.612568 
L 465.336657 143.521782 
L 467.40014 132.606603 
L 469.463622 135.464873 
L 471.527104 146.600234 
L 473.590586 183.401164 
L 475.654069 176.923011 
L 477.717551 229.262207 
L 479.781033 215.550332 
L 481.844516 230.085747 
L 483.907998 193.964937 
L 485.97148 218.497449 
L 488.034962 190.493284 
L 490.098445 177.620912 
L 492.161927 162.853616 
L 494.225409 182.798172 
L 496.288892 251.958611 
L 498.352374 222.026957 
L 500.415856 239.837064 
L 502.479338 248.485744 
L 504.542821 190.332186 
L 506.606303 269.068253 
L 508.669785 203.23555 
L 510.733268 259.403875 
L 512.79675 167.494653 
L 514.860232 170.923281 
L 516.923714 142.772255 
L 518.987197 220.24001 
L 521.050679 170.570285 
L 523.114161 163.639128 
L 525.177643 193.705181 
L 527.241126 185.083835 
L 529.304608 268.595715 
L 531.36809 200.697353 
L 533.431573 319.810965 
L 535.495055 187.419644 
L 537.558537 216.558544 
L 539.622019 234.845137 
L 541.685502 266.763368 
L 543.748984 254.111266 
L 545.812466 188.666417 
L 547.875949 208.904348 
L 549.939431 157.479651 
L 552.002913 138.814453 
L 554.066395 128.586674 
L 556.129878 138.10322 
L 558.19336 219.40399 
L 560.256842 190.821842 
L 562.320325 191.860991 
L 564.383807 195.834453 
L 566.447289 241.008766 
L 568.510771 165.351548 
L 570.574254 227.908156 
L 572.637736 216.226195 
L 574.701218 176.882861 
L 576.764701 157.36982 
L 578.828183 258.946516 
L 580.891665 193.43988 
L 582.955147 203.523008 
L 585.01863 179.000358 
L 587.082112 240.882903 
L 589.145594 203.782301 
L 591.209076 178.884088 
L 593.272559 185.678091 
L 595.336041 180.433338 
L 597.399523 179.242645 
L 599.463006 209.379655 
L 601.526488 198.34438 
L 603.58997 234.183638 
L 605.653452 276.323917 
L 607.716935 234.91924 
L 609.780417 225.201913 
L 611.843899 230.491344 
L 613.907382 241.330788 
L 615.970864 213.912093 
L 618.034346 217.190749 
L 620.097828 242.757822 
L 622.161311 229.48057 
L 624.224793 210.468335 
L 626.288275 207.613416 
L 628.351758 224.307175 
L 630.41524 227.821793 
L 632.478722 188.178266 
L 634.542204 203.748965 
L 638.669169 204.303361 
L 640.732651 197.768922 
L 642.796133 200.157447 
L 644.859616 191.806986 
L 646.923098 199.246036 
L 648.98658 209.29776 
L 651.050063 228.809179 
L 653.113545 258.019989 
L 655.177027 251.230369 
L 657.240509 259.886289 
L 659.303992 214.973294 
L 661.367474 223.979517 
L 663.430956 217.26895 
L 665.494439 221.943542 
L 667.557921 291.497282 
L 669.621403 324.72 
L 671.684885 182.63121 
L 673.748368 199.54237 
L 675.81185 178.995114 
L 677.875332 184.732468 
L 679.938815 196.185442 
L 684.065779 233.989128 
L 686.129261 258.291209 
L 686.129261 258.291209 
" clip-path="url(#pde5881bb93)" style="fill: none; stroke-dasharray: 3.7,1.6; stroke-dashoffset: 0; stroke: #4fa8c8"/>
   </g>
   <g id="line2d_31">
    <path d="M 77.401989 90.223865 
L 79.465471 77.839686 
L 81.528953 163.691774 
L 83.592435 126.630829 
L 85.655918 148.73833 
L 87.7194 165.154729 
L 89.782882 133.500974 
L 91.846365 82.372019 
L 93.909847 57.358584 
L 95.973329 95.510735 
L 98.036811 61.914956 
L 100.100294 101.037916 
L 102.163776 102.231978 
L 104.227258 97.217324 
L 106.290741 124.410211 
L 108.354223 127.585585 
L 110.417705 114.271707 
L 112.481187 108.006392 
L 114.54467 140.957254 
L 116.608152 163.247283 
L 118.671634 153.18783 
L 120.735117 108.349125 
L 122.798599 117.166975 
L 124.862081 101.738544 
L 126.925563 101.506458 
L 128.989046 101.855491 
L 131.052528 102.694796 
L 133.11601 117.481723 
L 135.179492 127.176279 
L 137.242975 174.496521 
L 139.306457 158.45274 
L 141.369939 139.598174 
L 143.433422 168.051392 
L 145.496904 175.064055 
L 147.560386 110.966124 
L 149.623868 130.146536 
L 151.687351 101.044858 
L 153.750833 143.578557 
L 155.814315 100.658101 
L 157.877798 109.438003 
L 159.94128 100.546019 
L 162.004762 116.513623 
L 164.068244 152.714775 
L 166.131727 183.857215 
L 168.195209 157.233807 
L 170.258691 146.299618 
L 172.322174 117.582531 
L 174.385656 111.548725 
L 176.449138 152.810538 
L 178.51262 153.820963 
L 180.576103 127.01138 
L 182.639585 131.286916 
L 184.703067 118.901853 
L 186.766549 144.989679 
L 188.830032 124.680602 
L 190.893514 80.884718 
L 192.956996 76.347472 
L 195.020479 71.370961 
L 197.083961 70.313575 
L 199.147443 77.504176 
L 201.210925 91.827836 
L 203.274408 140.3812 
L 205.33789 139.619969 
L 207.401372 137.968486 
L 209.464855 129.71758 
L 211.528337 92.493696 
L 213.591819 80.865874 
L 215.655301 96.576801 
L 217.718784 85.211919 
L 219.782266 84.714707 
L 221.845748 102.743485 
L 223.909231 91.79423 
L 225.972713 88.747918 
L 228.036195 121.214042 
L 230.099677 126.739526 
L 232.16316 118.948277 
L 234.226642 150.744323 
L 236.290124 151.102996 
L 238.353607 137.619907 
L 240.417089 122.251977 
L 242.480571 140.38763 
L 244.544053 145.199016 
L 246.607536 134.935017 
L 248.671018 114.71117 
L 250.7345 100.021492 
L 252.797982 141.01994 
L 254.861465 132.769474 
L 256.924947 141.657815 
L 258.988429 172.528299 
L 261.051912 149.902484 
L 263.115394 149.515478 
L 265.178876 155.322273 
L 267.242358 127.933308 
L 269.305841 114.227393 
L 273.432805 126.056295 
L 275.496288 98.948414 
L 277.55977 136.088535 
L 279.623252 177.528805 
L 281.686734 158.785585 
L 283.750217 33.489104 
L 285.813699 72.558078 
L 287.877181 39.968042 
L 289.940664 60.866604 
L 292.004146 172.924381 
L 294.067628 125.619519 
L 296.13111 129.32576 
L 298.194593 109.553978 
L 300.258075 138.002212 
L 302.321557 126.454733 
L 304.385039 112.654136 
L 306.448522 80.724822 
L 308.512004 73.601366 
L 310.575486 70.69329 
L 312.638969 110.021186 
L 314.702451 125.532881 
L 316.765933 103.025364 
L 318.829415 113.566563 
L 320.892898 72.738487 
L 322.95638 157.129626 
L 325.019862 164.282454 
L 327.083345 108.535387 
L 329.146827 118.905594 
L 331.210309 125.247886 
L 333.273791 106.373766 
L 335.337274 97.891478 
L 337.400756 117.269393 
L 339.464238 110.788406 
L 341.527721 112.800356 
L 343.591203 109.888949 
L 345.654685 146.446909 
L 347.718167 88.841966 
L 349.78165 101.602333 
L 351.845132 111.555901 
L 353.908614 114.04441 
L 355.972096 119.610153 
L 358.035579 123.512249 
L 360.099061 153.168728 
L 362.162543 143.464162 
L 364.226026 99.751361 
L 366.289508 110.12405 
L 368.35299 83.073136 
L 370.416472 80.904967 
L 372.479955 62.072968 
L 374.543437 40.993394 
L 376.606919 79.208982 
L 378.670402 75.430677 
L 380.733884 92.158333 
L 382.797366 83.281978 
L 384.860848 78.880006 
L 386.924331 44.358195 
L 388.987813 40.398833 
L 391.051295 71.379043 
L 393.114778 96.307822 
L 395.17826 73.414591 
L 397.241742 47.933602 
L 399.305224 86.926233 
L 401.368707 68.946793 
L 403.432189 96.940371 
L 405.495671 121.579496 
L 407.559154 132.047256 
L 409.622636 98.114725 
L 411.686118 102.738594 
L 413.7496 119.245716 
L 415.813083 124.585245 
L 417.876565 115.898387 
L 419.940047 98.633212 
L 422.003529 120.560304 
L 424.067012 124.010573 
L 426.130494 140.675825 
L 428.193976 107.014855 
L 430.257459 112.000285 
L 432.320941 118.494402 
L 434.384423 164.239601 
L 436.447905 162.483456 
L 438.511388 153.292691 
L 440.57487 71.382347 
L 442.638352 60.941452 
L 444.701835 85.041926 
L 446.765317 131.976914 
L 448.828799 138.822655 
L 450.892281 37.087495 
L 452.955764 37.686387 
L 455.019246 71.244621 
L 457.082728 39.700084 
L 459.146211 27.782204 
L 461.209693 35.921274 
L 463.273175 49.477999 
L 465.336657 37.401875 
L 467.40014 26.500629 
L 469.463622 29.373554 
L 471.527104 40.395125 
L 473.590586 77.210727 
L 475.654069 70.74699 
L 477.717551 123.10086 
L 479.781033 109.40358 
L 481.844516 123.953567 
L 483.907998 87.847041 
L 485.97148 112.394016 
L 488.034962 84.404095 
L 490.098445 71.546042 
L 492.161927 56.792825 
L 494.225409 76.752065 
L 496.288892 145.926994 
L 498.352374 116.0097 
L 500.415856 133.83434 
L 502.479338 142.497434 
L 504.542821 84.358521 
L 506.606303 163.107963 
L 508.669785 97.287578 
L 510.733268 153.468538 
L 512.79675 61.461176 
L 514.860232 64.904265 
L 516.923714 36.7677 
L 518.987197 114.250117 
L 521.050679 64.594455 
L 523.114161 57.677734 
L 525.177643 87.758374 
L 527.241126 79.151664 
L 529.304608 162.677686 
L 531.36809 94.792907 
L 533.431573 213.921198 
L 535.495055 81.54408 
L 537.558537 110.695553 
L 539.622019 128.863985 
L 541.685502 160.639528 
L 543.748984 148.002101 
L 545.812466 82.571935 
L 547.875949 102.824541 
L 549.939431 51.295929 
L 552.002913 32.53482 
L 554.066395 22.32 
L 556.129878 31.850904 
L 558.19336 113.166199 
L 560.256842 84.597056 
L 562.320325 85.65068 
L 564.383807 89.638794 
L 566.447289 134.716562 
L 568.510771 59.073843 
L 570.574254 121.64448 
L 572.637736 109.977095 
L 574.701218 70.648427 
L 576.764701 51.14865 
L 578.828183 152.739701 
L 580.891665 87.247385 
L 582.955147 97.344642 
L 585.01863 72.836569 
L 587.082112 134.733699 
L 589.145594 97.647746 
L 591.209076 72.763637 
L 593.272559 79.57162 
L 595.336041 74.341125 
L 597.399523 73.164532 
L 599.463006 103.315663 
L 601.526488 92.294903 
L 603.58997 128.148809 
L 605.653452 170.303752 
L 607.716935 128.913379 
L 609.780417 119.21071 
L 611.843899 124.514559 
L 613.907382 135.368502 
L 615.970864 107.964265 
L 618.034346 111.25745 
L 620.097828 136.839098 
L 622.161311 123.574713 
L 624.224793 104.465368 
L 626.288275 101.625108 
L 628.351758 118.333223 
L 630.41524 121.862059 
L 632.478722 82.118841 
L 634.542204 97.703846 
L 638.669169 98.28405 
L 640.732651 91.76267 
L 642.796133 94.165811 
L 644.859616 85.829894 
L 646.923098 93.170119 
L 648.98658 103.235993 
L 651.050063 122.761598 
L 653.113545 151.986789 
L 655.177027 145.077281 
L 657.240509 153.634877 
L 659.303992 108.617342 
L 661.367474 117.637468 
L 663.430956 110.940872 
L 665.494439 115.629382 
L 667.557921 185.19691 
L 669.621403 218.433918 
L 671.684885 76.359721 
L 673.748368 93.158838 
L 675.81185 72.625711 
L 677.875332 78.377161 
L 679.938815 89.843033 
L 684.065779 127.676025 
L 686.129261 151.992699 
L 686.129261 151.992699 
" clip-path="url(#pde5881bb93)" style="fill: none; stroke-dasharray: 3.7,1.6; stroke-dashoffset: 0; stroke: #4fa8c8"/>
   </g>
   <g id="patch_3">
    <path d="M 46.965625 339.84 
L 46.965625 7.2 
" style="fill: none; stroke: #000000; stroke-width: 0.8; stroke-linejoin: miter; stroke-linecap: square"/>
   </g>
   <g id="patch_4">
    <path d="M 716.565625 339.84 
L 716.565625 7.2 
" style="fill: none; stroke: #000000; stroke-width: 0.8; stroke-linejoin: miter; stroke-linecap: square"/>
   </g>
   <g id="patch_5">
    <path d="M 46.965625 339.84 
L 716.565625 339.84 
" style="fill: none; stroke: #000000; stroke-width: 0.8; stroke-linejoin: miter; stroke-linecap: square"/>
   </g>
   <g id="patch_6">
    <path d="M 46.965625 7.2 
L 716.565625 7.2 
" style="fill: none; stroke: #000000; stroke-width: 0.8; stroke-linejoin: miter; stroke-linecap: square"/>
   </g>
   <g id="legend_1">
    <g id="patch_7">
     <path d="M 304.432031 334.84 
L 459.099219 334.84 
Q 461.099219 334.84 461.099219 332.84 
L 461.099219 289.805625 
Q 461.099219 287.805625 459.099219 287.805625 
L 304.432031 287.805625 
Q 302.432031 287.805625 302.432031 289.805625 
L 302.432031 332.84 
Q 302.432031 334.84 304.432031 334.84 
z
" style="fill: #ffffff; opacity: 0.8; stroke: #cccccc; stroke-linejoin: miter"/>
    </g>
    <g id="line2d_32">
     <path d="M 306.432031 295.904062 
L 316.432031 295.904062 
L 326.432031 295.904062 
" style="fill: none; stroke: #000000; stroke-width: 1.5; stroke-linecap: square"/>
    </g>
    <g id="text_17">
     <!-- Ground truth -->
     <g transform="translate(334.432031 299.404062) scale(0.1 -0.1)">
      <defs>
       <path id="DejaVuSans-47" d="M 3809 666 
L 3809 1919 
L 2778 1919 
L 2778 2438 
L 4434 2438 
L 4434 434 
Q 4069 175 3628 42 
Q 3188 -91 2688 -91 
Q 1594 -91 976 548 
Q 359 1188 359 2328 
Q 359 3472 976 4111 
Q 1594 4750 2688 4750 
Q 3144 4750 3555 4637 
Q 3966 4525 4313 4306 
L 4313 3634 
Q 3963 3931 3569 4081 
Q 3175 4231 2741 4231 
Q 1884 4231 1454 3753 
Q 1025 3275 1025 2328 
Q 1025 1384 1454 906 
Q 1884 428 2741 428 
Q 3075 428 3337 486 
Q 3600 544 3809 666 
z
" transform="scale(0.015625)"/>
       <path id="DejaVuSans-75" d="M 544 1381 
L 544 3500 
L 1119 3500 
L 1119 1403 
Q 1119 906 1312 657 
Q 1506 409 1894 409 
Q 2359 409 2629 706 
Q 2900 1003 2900 1516 
L 2900 3500 
L 3475 3500 
L 3475 0 
L 2900 0 
L 2900 538 
Q 2691 219 2414 64 
Q 2138 -91 1772 -91 
Q 1169 -91 856 284 
Q 544 659 544 1381 
z
M 1991 3584 
L 1991 3584 
z
" transform="scale(0.015625)"/>
       <path id="DejaVuSans-64" d="M 2906 2969 
L 2906 4863 
L 3481 4863 
L 3481 0 
L 2906 0 
L 2906 525 
Q 2725 213 2448 61 
Q 2172 -91 1784 -91 
Q 1150 -91 751 415 
Q 353 922 353 1747 
Q 353 2572 751 3078 
Q 1150 3584 1784 3584 
Q 2172 3584 2448 3432 
Q 2725 3281 2906 2969 
z
M 947 1747 
Q 947 1113 1208 752 
Q 1469 391 1925 391 
Q 2381 391 2643 752 
Q 2906 1113 2906 1747 
Q 2906 2381 2643 2742 
Q 2381 3103 1925 3103 
Q 1469 3103 1208 2742 
Q 947 2381 947 1747 
z
" transform="scale(0.015625)"/>
       <path id="DejaVuSans-68" d="M 3513 2113 
L 3513 0 
L 2938 0 
L 2938 2094 
Q 2938 2591 2744 2837 
Q 2550 3084 2163 3084 
Q 1697 3084 1428 2787 
Q 1159 2491 1159 1978 
L 1159 0 
L 581 0 
L 581 4863 
L 1159 4863 
L 1159 2956 
Q 1366 3272 1645 3428 
Q 1925 3584 2291 3584 
Q 2894 3584 3203 3211 
Q 3513 2838 3513 2113 
z
" transform="scale(0.015625)"/>
      </defs>
      <use xlink:href="#DejaVuSans-47"/>
      <use xlink:href="#DejaVuSans-72" transform="translate(77.490234 0)"/>
      <use xlink:href="#DejaVuSans-6f" transform="translate(116.353516 0)"/>
      <use xlink:href="#DejaVuSans-75" transform="translate(177.535156 0)"/>
      <use xlink:href="#DejaVuSans-6e" transform="translate(240.914062 0)"/>
      <use xlink:href="#DejaVuSans-64" transform="translate(304.292969 0)"/>
      <use xlink:href="#DejaVuSans-20" transform="translate(367.769531 0)"/>
      <use xlink:href="#DejaVuSans-74" transform="translate(399.556641 0)"/>
      <use xlink:href="#DejaVuSans-72" transform="translate(438.765625 0)"/>
      <use xlink:href="#DejaVuSans-75" transform="translate(479.878906 0)"/>
      <use xlink:href="#DejaVuSans-74" transform="translate(543.257812 0)"/>
      <use xlink:href="#DejaVuSans-68" transform="translate(582.466797 0)"/>
     </g>
    </g>
    <g id="line2d_33">
     <path d="M 306.432031 310.582187 
L 316.432031 310.582187 
L 326.432031 310.582187 
" style="fill: none; stroke-dasharray: 3.7,1.6; stroke-dashoffset: 0; stroke: #4fa8c8"/>
    </g>
    <g id="text_18">
     <!-- Upper and lower bounds -->
     <g transform="translate(334.432031 314.082187) scale(0.1 -0.1)">
      <defs>
       <path id="DejaVuSans-55" d="M 556 4666 
L 1191 4666 
L 1191 1831 
Q 1191 1081 1462 751 
Q 1734 422 2344 422 
Q 2950 422 3222 751 
Q 3494 1081 3494 1831 
L 3494 4666 
L 4128 4666 
L 4128 1753 
Q 4128 841 3676 375 
Q 3225 -91 2344 -91 
Q 1459 -91 1007 375 
Q 556 841 556 1753 
L 556 4666 
z
" transform="scale(0.015625)"/>
       <path id="DejaVuSans-70" d="M 1159 525 
L 1159 -1331 
L 581 -1331 
L 581 3500 
L 1159 3500 
L 1159 2969 
Q 1341 3281 1617 3432 
Q 1894 3584 2278 3584 
Q 2916 3584 3314 3078 
Q 3713 2572 3713 1747 
Q 3713 922 3314 415 
Q 2916 -91 2278 -91 
Q 1894 -91 1617 61 
Q 1341 213 1159 525 
z
M 3116 1747 
Q 3116 2381 2855 2742 
Q 2594 3103 2138 3103 
Q 1681 3103 1420 2742 
Q 1159 2381 1159 1747 
Q 1159 1113 1420 752 
Q 1681 391 2138 391 
Q 2594 391 2855 752 
Q 3116 1113 3116 1747 
z
" transform="scale(0.015625)"/>
       <path id="DejaVuSans-6c" d="M 603 4863 
L 1178 4863 
L 1178 0 
L 603 0 
L 603 4863 
z
" transform="scale(0.015625)"/>
       <path id="DejaVuSans-77" d="M 269 3500 
L 844 3500 
L 1563 769 
L 2278 3500 
L 2956 3500 
L 3675 769 
L 4391 3500 
L 4966 3500 
L 4050 0 
L 3372 0 
L 2619 2869 
L 1863 0 
L 1184 0 
L 269 3500 
z
" transform="scale(0.015625)"/>
       <path id="DejaVuSans-62" d="M 3116 1747 
Q 3116 2381 2855 2742 
Q 2594 3103 2138 3103 
Q 1681 3103 1420 2742 
Q 1159 2381 1159 1747 
Q 1159 1113 1420 752 
Q 1681 391 2138 391 
Q 2594 391 2855 752 
Q 3116 1113 3116 1747 
z
M 1159 2969 
Q 1341 3281 1617 3432 
Q 1894 3584 2278 3584 
Q 2916 3584 3314 3078 
Q 3713 2572 3713 1747 
Q 3713 922 3314 415 
Q 2916 -91 2278 -91 
Q 1894 -91 1617 61 
Q 1341 213 1159 525 
L 1159 0 
L 581 0 
L 581 4863 
L 1159 4863 
L 1159 2969 
z
" transform="scale(0.015625)"/>
      </defs>
      <use xlink:href="#DejaVuSans-55"/>
      <use xlink:href="#DejaVuSans-70" transform="translate(73.193359 0)"/>
      <use xlink:href="#DejaVuSans-70" transform="translate(136.669922 0)"/>
      <use xlink:href="#DejaVuSans-65" transform="translate(200.146484 0)"/>
      <use xlink:href="#DejaVuSans-72" transform="translate(261.669922 0)"/>
      <use xlink:href="#DejaVuSans-20" transform="translate(302.783203 0)"/>
      <use xlink:href="#DejaVuSans-61" transform="translate(334.570312 0)"/>
      <use xlink:href="#DejaVuSans-6e" transform="translate(395.849609 0)"/>
      <use xlink:href="#DejaVuSans-64" transform="translate(459.228516 0)"/>
      <use xlink:href="#DejaVuSans-20" transform="translate(522.705078 0)"/>
      <use xlink:href="#DejaVuSans-6c" transform="translate(554.492188 0)"/>
      <use xlink:href="#DejaVuSans-6f" transform="translate(582.275391 0)"/>
      <use xlink:href="#DejaVuSans-77" transform="translate(643.457031 0)"/>
      <use xlink:href="#DejaVuSans-65" transform="translate(725.244141 0)"/>
      <use xlink:href="#DejaVuSans-72" transform="translate(786.767578 0)"/>
      <use xlink:href="#DejaVuSans-20" transform="translate(827.880859 0)"/>
      <use xlink:href="#DejaVuSans-62" transform="translate(859.667969 0)"/>
      <use xlink:href="#DejaVuSans-6f" transform="translate(923.144531 0)"/>
      <use xlink:href="#DejaVuSans-75" transform="translate(984.326172 0)"/>
      <use xlink:href="#DejaVuSans-6e" transform="translate(1047.705078 0)"/>
      <use xlink:href="#DejaVuSans-64" transform="translate(1111.083984 0)"/>
      <use xlink:href="#DejaVuSans-73" transform="translate(1174.560547 0)"/>
     </g>
    </g>
    <g id="patch_8">
     <path d="M 306.432031 328.760312 
L 326.432031 328.760312 
L 326.432031 321.760312 
L 306.432031 321.760312 
z
" style="fill: #4fa8c8; fill-opacity: 0.2; stroke: #4fa8c8; stroke-opacity: 0.2; stroke-linejoin: miter"/>
    </g>
    <g id="text_19">
     <!-- Prediction interval -->
     <g transform="translate(334.432031 328.760312) scale(0.1 -0.1)">
      <defs>
       <path id="DejaVuSans-50" d="M 1259 4147 
L 1259 2394 
L 2053 2394 
Q 2494 2394 2734 2622 
Q 2975 2850 2975 3272 
Q 2975 3691 2734 3919 
Q 2494 4147 2053 4147 
L 1259 4147 
z
M 628 4666 
L 2053 4666 
Q 2838 4666 3239 4311 
Q 3641 3956 3641 3272 
Q 3641 2581 3239 2228 
Q 2838 1875 2053 1875 
L 1259 1875 
L 1259 0 
L 628 0 
L 628 4666 
z
" transform="scale(0.015625)"/>
       <path id="DejaVuSans-63" d="M 3122 3366 
L 3122 2828 
Q 2878 2963 2633 3030 
Q 2388 3097 2138 3097 
Q 1578 3097 1268 2742 
Q 959 2388 959 1747 
Q 959 1106 1268 751 
Q 1578 397 2138 397 
Q 2388 397 2633 464 
Q 2878 531 3122 666 
L 3122 134 
Q 2881 22 2623 -34 
Q 2366 -91 2075 -91 
Q 1284 -91 818 406 
Q 353 903 353 1747 
Q 353 2603 823 3093 
Q 1294 3584 2113 3584 
Q 2378 3584 2631 3529 
Q 2884 3475 3122 3366 
z
" transform="scale(0.015625)"/>
       <path id="DejaVuSans-76" d="M 191 3500 
L 800 3500 
L 1894 563 
L 2988 3500 
L 3597 3500 
L 2284 0 
L 1503 0 
L 191 3500 
z
" transform="scale(0.015625)"/>
      </defs>
      <use xlink:href="#DejaVuSans-50"/>
      <use xlink:href="#DejaVuSans-72" transform="translate(58.552734 0)"/>
      <use xlink:href="#DejaVuSans-65" transform="translate(97.416016 0)"/>
      <use xlink:href="#DejaVuSans-64" transform="translate(158.939453 0)"/>
      <use xlink:href="#DejaVuSans-69" transform="translate(222.416016 0)"/>
      <use xlink:href="#DejaVuSans-63" transform="translate(250.199219 0)"/>
      <use xlink:href="#DejaVuSans-74" transform="translate(305.179688 0)"/>
      <use xlink:href="#DejaVuSans-69" transform="translate(344.388672 0)"/>
      <use xlink:href="#DejaVuSans-6f" transform="translate(372.171875 0)"/>
      <use xlink:href="#DejaVuSans-6e" transform="translate(433.353516 0)"/>
      <use xlink:href="#DejaVuSans-20" transform="translate(496.732422 0)"/>
      <use xlink:href="#DejaVuSans-69" transform="translate(528.519531 0)"/>
      <use xlink:href="#DejaVuSans-6e" transform="translate(556.302734 0)"/>
      <use xlink:href="#DejaVuSans-74" transform="translate(619.681641 0)"/>
      <use xlink:href="#DejaVuSans-65" transform="translate(658.890625 0)"/>
      <use xlink:href="#DejaVuSans-72" transform="translate(720.414062 0)"/>
      <use xlink:href="#DejaVuSans-76" transform="translate(761.527344 0)"/>
      <use xlink:href="#DejaVuSans-61" transform="translate(820.707031 0)"/>
      <use xlink:href="#DejaVuSans-6c" transform="translate(881.986328 0)"/>
     </g>
    </g>
   </g>
  </g>
 </g>
 <defs>
  <clipPath id="pde5881bb93">
   <rect x="46.965625" y="7.2" width="669.6" height="332.64"/>
  </clipPath>
 </defs>
</svg>
